<svg width="70" height="70" viewBox="0 0 70 70" fill="none" xmlns="http://www.w3.org/2000/svg">
<path d="M33.4672 28.8505V30.2168C32.6979 30.4878 32.0492 31.0223 31.6362 31.7257C31.2232 32.4291 31.0724 33.256 31.2107 34.0599C31.3489 34.8638 31.7672 35.5928 32.3914 36.1179C33.0156 36.643 33.8055 36.9301 34.6212 36.9286C34.8495 36.9286 35.0726 36.9963 35.2624 37.1231C35.4522 37.2499 35.6001 37.4301 35.6874 37.641C35.7748 37.8519 35.7976 38.0839 35.7531 38.3078C35.7086 38.5316 35.5986 38.7372 35.4373 38.8986C35.2759 39.06 35.0702 39.1699 34.8464 39.2145C34.6225 39.259 34.3905 39.2361 34.1796 39.1488C33.9687 39.0614 33.7885 38.9135 33.6617 38.7238C33.5349 38.534 33.4672 38.3109 33.4672 38.0826H31.1592C31.1621 38.7961 31.3855 39.4913 31.7986 40.073C32.2118 40.6547 32.7945 41.0945 33.4672 41.3323V42.6987H35.7753V41.3323C36.5446 41.0614 37.1933 40.5268 37.6063 39.8234C38.0193 39.12 38.17 38.2931 38.0318 37.4892C37.8936 36.6854 37.4753 35.9563 36.8511 35.4313C36.2268 34.9062 35.4369 34.619 34.6212 34.6206C34.393 34.6206 34.1699 34.5529 33.9801 34.4261C33.7903 34.2993 33.6424 34.119 33.5551 33.9082C33.4677 33.6973 33.4449 33.4653 33.4894 33.2414C33.5339 33.0175 33.6438 32.8119 33.8052 32.6505C33.9666 32.4891 34.1722 32.3792 34.3961 32.3347C34.62 32.2902 34.852 32.313 35.0629 32.4004C35.2737 32.4877 35.454 32.6356 35.5808 32.8254C35.7076 33.0152 35.7753 33.2383 35.7753 33.4665H38.0833C38.0803 32.7531 37.857 32.0579 37.4439 31.4762C37.0307 30.8945 36.4479 30.4546 35.7753 30.2168V28.8505H33.4672Z" fill="#DFB66C"/>
<path d="M41.5445 20.7724C43.6862 20.7699 45.7395 19.918 47.2539 18.4036C48.7684 16.8892 49.6202 14.8359 49.6227 12.6942C49.6227 12.3881 49.5011 12.0946 49.2847 11.8782C49.0682 11.6618 48.7747 11.5402 48.4687 11.5402H41.5445C40.4688 11.5396 39.4039 11.7548 38.4128 12.173C37.4217 12.5913 36.5245 13.2041 35.7744 13.9752V9.23216H41.5445C43.6862 9.22971 45.7395 8.37784 47.2539 6.86343C48.7684 5.34901 49.6202 3.29572 49.6227 1.15402C49.6227 0.847954 49.5011 0.554425 49.2847 0.338004C49.0682 0.121584 48.7747 0 48.4687 0H41.5445C40.1485 0.000273432 38.7764 0.363078 37.5626 1.05289C36.3489 1.74271 35.335 2.73589 34.6204 3.93521C33.9058 2.73589 32.892 1.74271 31.6782 1.05289C30.4645 0.363078 29.0924 0.000273432 27.6963 0H20.7722C20.4661 0 20.1726 0.121584 19.9562 0.338004C19.7397 0.554425 19.6182 0.847954 19.6182 1.15402C19.6206 3.29572 20.4725 5.34901 21.9869 6.86343C23.5013 8.37784 25.5546 9.22971 27.6963 9.23216H33.4664V13.9752C32.7163 13.2041 31.8192 12.5913 30.8281 12.173C29.837 11.7548 28.772 11.5396 27.6963 11.5402H20.7722C20.4661 11.5402 20.1726 11.6618 19.9562 11.8782C19.7397 12.0946 19.6182 12.3881 19.6182 12.6942C19.6206 14.8359 20.4725 16.8892 21.9869 18.4036C23.5013 19.918 25.5546 20.7699 27.6963 20.7724H33.4664V23.1381C30.2132 23.4351 27.1997 24.9747 25.0528 27.4369C22.9058 29.899 21.7907 33.094 21.9394 36.3573C22.088 39.6207 23.489 42.7011 25.8508 44.9579C28.2127 47.2146 31.3537 48.474 34.6204 48.474C37.8871 48.474 41.0281 47.2146 43.39 44.9579C45.7519 42.7011 47.1528 39.6207 47.3015 36.3573C47.4501 33.094 46.335 29.899 44.188 27.4369C42.0411 24.9747 39.0276 23.4351 35.7744 23.1381V20.7724H41.5445ZM41.5445 13.8482H47.1992C46.9314 15.1506 46.2227 16.3209 45.1927 17.1617C44.1626 18.0026 42.8742 18.4626 41.5445 18.4643H35.8898C36.1577 17.1619 36.8663 15.9916 37.8964 15.1508C38.9264 14.3099 40.2149 13.8499 41.5445 13.8482ZM41.5445 2.30804H47.1992C46.9314 3.61045 46.2227 4.7807 45.1927 5.62155C44.1626 6.46241 42.8742 6.92244 41.5445 6.92412H35.8898C36.1577 5.62171 36.8663 4.45145 37.8964 3.6106C38.9264 2.76975 40.2149 2.30972 41.5445 2.30804ZM27.6963 6.92412C26.3666 6.92244 25.0782 6.46241 24.0482 5.62155C23.0181 4.7807 22.3094 3.61045 22.0416 2.30804H27.6963C29.026 2.30972 30.3144 2.76975 31.3444 3.6106C32.3745 4.45145 33.0832 5.62171 33.351 6.92412H27.6963ZM27.6963 18.4643C26.3666 18.4626 25.0782 18.0026 24.0482 17.1617C23.0181 16.3209 22.3094 15.1506 22.0416 13.8482H27.6963C29.026 13.8499 30.3144 14.3099 31.3444 15.1508C32.3745 15.9916 33.0832 17.1619 33.351 18.4643H27.6963ZM45.0066 35.7746C45.0066 37.8288 44.3975 39.8369 43.2562 41.5449C42.115 43.2529 40.4929 44.5841 38.595 45.3702C36.6972 46.1563 34.6089 46.362 32.5942 45.9612C30.5795 45.5605 28.7288 44.5713 27.2763 43.1187C25.8238 41.6662 24.8346 39.8156 24.4338 37.8008C24.0331 35.7861 24.2387 33.6978 25.0248 31.8C25.8109 29.9022 27.1422 28.2801 28.8502 27.1388C30.5582 25.9976 32.5662 25.3884 34.6204 25.3884C37.3737 25.3927 40.013 26.4883 41.9598 28.4352C43.9067 30.382 45.0023 33.0213 45.0066 35.7746Z" fill="#DFB66C"/>
<path d="M2.30811 2H4.61614V4.30804H2.30811V2Z" fill="#DFB66C"/>
<path d="M2.30811 6.61609H4.61614V8.92413H2.30811V6.61609Z" fill="#DFB66C"/>
<path d="M0 4.30798H2.30804V6.61602H0V4.30798Z" fill="#DFB66C"/>
<path d="M4.61597 4.30798H6.92401V6.61602H4.61597V4.30798Z" fill="#DFB66C"/>
<path d="M9.23242 13.8482H11.5405V16.1562H9.23242V13.8482Z" fill="#DFB66C"/>
<path d="M9.23242 18.4643H11.5405V20.7723H9.23242V18.4643Z" fill="#DFB66C"/>
<path d="M6.92383 16.1562H9.23187V18.4643H6.92383V16.1562Z" fill="#DFB66C"/>
<path d="M11.54 16.1562H13.8481V18.4643H11.54V16.1562Z" fill="#DFB66C"/>
<path d="M2.30762 27.6965H4.61566V30.0045H2.30762V27.6965Z" fill="#DFB66C"/>
<path d="M2.30762 32.3125H4.61566V34.6205H2.30762V32.3125Z" fill="#DFB66C"/>
<path d="M0 30.0045H2.30804V32.3126H0V30.0045Z" fill="#DFB66C"/>
<path d="M4.61621 30.0045H6.92425V32.3126H4.61621V30.0045Z" fill="#DFB66C"/>
<path d="M64.625 2H66.933V4.30804H64.625V2Z" fill="#DFB66C"/>
<path d="M64.625 6.61609H66.933V8.92413H64.625V6.61609Z" fill="#DFB66C"/>
<path d="M66.9331 4.30798H69.2411V6.61602H66.9331V4.30798Z" fill="#DFB66C"/>
<path d="M62.3171 4.30798H64.6252V6.61602H62.3171V4.30798Z" fill="#DFB66C"/>
<path d="M57.7012 13.8482H60.0092V16.1562H57.7012V13.8482Z" fill="#DFB66C"/>
<path d="M57.7012 18.4643H60.0092V20.7723H57.7012V18.4643Z" fill="#DFB66C"/>
<path d="M60.0088 16.1562H62.3168V18.4643H60.0088V16.1562Z" fill="#DFB66C"/>
<path d="M55.3936 16.1562H57.7016V18.4643H55.3936V16.1562Z" fill="#DFB66C"/>
<path d="M64.625 27.6965H66.933V30.0045H64.625V27.6965Z" fill="#DFB66C"/>
<path d="M64.625 32.3125H66.933V34.6205H64.625V32.3125Z" fill="#DFB66C"/>
<path d="M66.9326 30.0045H69.2407V32.3126H66.9326V30.0045Z" fill="#DFB66C"/>
<path d="M62.3174 30.0045H64.6254V32.3126H62.3174V30.0045Z" fill="#DFB66C"/>
<path d="M69.0681 46.2069C68.3005 44.8844 67.0411 43.919 65.5646 43.5212C64.0881 43.1234 62.5142 43.3256 61.1861 44.0835L46.7378 52.4271C45.6587 51.3705 44.209 50.7782 42.6987 50.7768H29.3236L25.9308 47.3725C25.1793 46.621 24.2868 46.0252 23.3046 45.6192C22.3224 45.2133 21.2697 45.0051 20.2069 45.0067H9.23215V42.6987C9.23215 42.3926 9.11057 42.0991 8.89415 41.8827C8.67773 41.6663 8.3842 41.5447 8.07814 41.5447H1.15402C0.847954 41.5447 0.554425 41.6663 0.338004 41.8827C0.121584 42.0991 0 42.3926 0 42.6987V68.0871C0 68.3932 0.121584 68.6867 0.338004 68.9031C0.554425 69.1196 0.847954 69.2411 1.15402 69.2411H8.07814C8.3842 69.2411 8.67773 69.1196 8.89415 68.9031C9.11057 68.6867 9.23215 68.3932 9.23215 68.0871V65.0059L23.2997 69.0219C23.8146 69.1649 24.3463 69.2387 24.8807 69.2411H39.1559C40.1689 69.2421 41.1642 68.9754 42.0409 68.468L66.9562 54.0889C68.2814 53.3237 69.2484 52.0634 69.6445 50.5853C70.0405 49.1071 69.8332 47.5322 69.0681 46.2069ZM6.92412 66.9331H2.30804V43.8527H6.92412V66.9331ZM67.4178 49.9806C67.3004 50.4199 67.0972 50.8317 66.82 51.1922C66.5427 51.5527 66.1968 51.8547 65.8022 52.0809L40.8869 66.4715C40.3591 66.7715 39.763 66.9305 39.1559 66.9331H24.8807C24.5601 66.9341 24.2412 66.8874 23.9344 66.7946L9.23215 62.6055V47.3148H20.2069C20.9664 47.3114 21.719 47.4597 22.4205 47.751C23.122 48.0424 23.7583 48.4708 24.2921 49.0112L28.0311 52.7502C28.2512 52.9628 28.5445 53.0826 28.8505 53.0849H42.6987C43.1481 53.0825 43.5936 53.169 44.0095 53.3393C44.4254 53.5096 44.8035 53.7604 45.1222 54.0773C45.2705 54.2302 45.4092 54.392 45.5376 54.562C45.9409 55.1456 46.1582 55.8376 46.1608 56.5469C46.158 57.4643 45.7924 58.3433 45.1437 58.9919C44.4951 59.6406 43.6161 60.0063 42.6987 60.009H28.8505V62.317H42.6987C43.6478 62.3228 44.5835 62.0929 45.4219 61.648C46.2603 61.2031 46.9752 60.5571 47.5024 59.7679C48.0297 58.9787 48.3529 58.071 48.443 57.1262C48.5331 56.1814 48.3873 55.2289 48.0187 54.3543L62.3401 46.0915C62.9327 45.749 63.6136 45.5898 64.2966 45.6342C64.9797 45.6785 65.6342 45.9242 66.1776 46.3404C66.721 46.7566 67.1289 47.3246 67.3496 47.9725C67.5704 48.6204 67.5941 49.3192 67.4178 49.9806Z" fill="#DFB66C"/>
</svg>
