<svg width="70" height="69" viewBox="0 0 70 69" fill="none" xmlns="http://www.w3.org/2000/svg">
<path d="M41.2316 20.6156C43.3571 20.6131 45.3949 19.7677 46.8979 18.2647C48.4009 16.7617 49.2463 14.7239 49.2487 12.5984C49.2487 12.2946 49.1281 12.0033 48.9133 11.7885C48.6985 11.5738 48.4072 11.4531 48.1034 11.4531H41.2316C40.1639 11.4525 39.1071 11.6661 38.1234 12.0811C37.1398 12.4962 36.2494 13.1044 35.505 13.8697V9.16247H41.2316C43.3571 9.16004 45.3949 8.3146 46.8979 6.81162C48.4009 5.30863 49.2463 3.27085 49.2487 1.14531C49.2487 0.841554 49.1281 0.55024 48.9133 0.335453C48.6985 0.120666 48.4072 0 48.1034 0H41.2316C39.846 0.000271368 38.4843 0.360338 37.2797 1.04495C36.0751 1.72956 35.0689 2.71524 34.3597 3.9055C33.6505 2.71524 32.6443 1.72956 31.4397 1.04495C30.2351 0.360338 28.8734 0.000271368 27.4879 0H20.616C20.3123 0 20.0209 0.120666 19.8062 0.335453C19.5914 0.55024 19.4707 0.841554 19.4707 1.14531C19.4731 3.27085 20.3186 5.30863 21.8216 6.81162C23.3245 8.3146 25.3623 9.16004 27.4879 9.16247H33.2144V13.8697C32.47 13.1044 31.5796 12.4962 30.596 12.0811C29.6124 11.6661 28.5555 11.4525 27.4879 11.4531H20.616C20.3123 11.4531 20.0209 11.5738 19.8062 11.7885C19.5914 12.0033 19.4707 12.2946 19.4707 12.5984C19.4731 14.7239 20.3186 16.7617 21.8216 18.2647C23.3245 19.7677 25.3623 20.6131 27.4879 20.6156H33.2144V22.9634C29.9858 23.2582 26.995 24.7862 24.8643 27.2298C22.7336 29.6733 21.6268 32.8442 21.7744 36.0829C21.9219 39.3216 23.3123 42.3788 25.6563 44.6185C28.0004 46.8582 31.1177 48.1081 34.3597 48.1081C37.6018 48.1081 40.719 46.8582 43.0631 44.6185C45.4071 42.3788 46.7975 39.3216 46.9451 36.0829C47.0926 32.8442 45.9859 29.6733 43.8551 27.2298C41.7244 24.7862 38.7337 23.2582 35.505 22.9634V20.6156H41.2316ZM41.2316 13.7437H46.8436C46.5778 15.0363 45.8744 16.1977 44.8522 17.0322C43.8299 17.8667 42.5512 18.3233 41.2316 18.3249H35.6196C35.8854 17.0324 36.5887 15.8709 37.611 15.0364C38.6332 14.2019 39.9119 13.7454 41.2316 13.7437ZM41.2316 2.29062H46.8436C46.5778 3.5832 45.8744 4.74462 44.8522 5.57912C43.8299 6.41363 42.5512 6.87019 41.2316 6.87185H35.6196C35.8854 5.57927 36.5887 4.41785 37.611 3.58335C38.6332 2.74884 39.9119 2.29228 41.2316 2.29062ZM27.4879 6.87185C26.1682 6.87019 24.8895 6.41363 23.8673 5.57912C22.845 4.74462 22.1417 3.5832 21.8759 2.29062H27.4879C28.8075 2.29228 30.0862 2.74884 31.1085 3.58335C32.1307 4.41785 32.8341 5.57927 33.0999 6.87185H27.4879ZM27.4879 18.3249C26.1682 18.3233 24.8895 17.8667 23.8673 17.0322C22.845 16.1977 22.1417 15.0363 21.8759 13.7437H27.4879C28.8075 13.7454 30.0862 14.2019 31.1085 15.0364C32.1307 15.8709 32.8341 17.0324 33.0999 18.3249H27.4879ZM44.6675 35.5046C44.6675 37.5433 44.063 39.5362 42.9303 41.2313C41.7977 42.9264 40.1878 44.2475 38.3043 45.0277C36.4208 45.8079 34.3483 46.012 32.3488 45.6143C30.3493 45.2166 28.5126 44.2348 27.071 42.7933C25.6294 41.3517 24.6477 39.515 24.25 37.5155C23.8523 35.516 24.0564 33.4435 24.8366 31.56C25.6167 29.6765 26.9379 28.0666 28.633 26.934C30.3281 25.8013 32.321 25.1968 34.3597 25.1968C37.0922 25.201 39.7116 26.2884 41.6437 28.2206C43.5759 30.1527 44.6632 32.7721 44.6675 35.5046Z" fill="#DFB66C"/>
<path d="M2.29077 2H4.58139V4.29062H2.29077V2Z" fill="#DFB66C"/>
<path d="M2.29077 6.5813H4.58139V8.87192H2.29077V6.5813Z" fill="#DFB66C"/>
<path d="M0 4.29053H2.29062V6.58114H0V4.29053Z" fill="#DFB66C"/>
<path d="M4.58154 4.29053H6.87216V6.58114H4.58154V4.29053Z" fill="#DFB66C"/>
<path d="M9.16211 13.7437H11.4527V16.0343H9.16211V13.7437Z" fill="#DFB66C"/>
<path d="M9.16211 18.325H11.4527V20.6156H9.16211V18.325Z" fill="#DFB66C"/>
<path d="M6.87109 16.0343H9.16171V18.3249H6.87109V16.0343Z" fill="#DFB66C"/>
<path d="M11.4531 16.0343H13.7437V18.3249H11.4531V16.0343Z" fill="#DFB66C"/>
<path d="M2.29102 27.4874H4.58163V29.778H2.29102V27.4874Z" fill="#DFB66C"/>
<path d="M2.29102 32.0686H4.58163V34.3592H2.29102V32.0686Z" fill="#DFB66C"/>
<path d="M0 29.7781H2.29062V32.0687H0V29.7781Z" fill="#DFB66C"/>
<path d="M4.58105 29.7781H6.87167V32.0687H4.58105V29.7781Z" fill="#DFB66C"/>
<path d="M64.137 2H66.4276V4.29062H64.137V2Z" fill="#DFB66C"/>
<path d="M64.137 6.5813H66.4276V8.87192H64.137V6.5813Z" fill="#DFB66C"/>
<path d="M66.4277 4.29053H68.7184V6.58114H66.4277V4.29053Z" fill="#DFB66C"/>
<path d="M61.8472 4.29053H64.1378V6.58114H61.8472V4.29053Z" fill="#DFB66C"/>
<path d="M57.2656 13.7437H59.5562V16.0343H57.2656V13.7437Z" fill="#DFB66C"/>
<path d="M57.2656 18.325H59.5562V20.6156H57.2656V18.325Z" fill="#DFB66C"/>
<path d="M59.5566 16.0343H61.8473V18.3249H59.5566V16.0343Z" fill="#DFB66C"/>
<path d="M54.9746 16.0343H57.2652V18.3249H54.9746V16.0343Z" fill="#DFB66C"/>
<path d="M64.1367 27.4874H66.4273V29.778H64.1367V27.4874Z" fill="#DFB66C"/>
<path d="M64.1367 32.0686H66.4273V34.3592H64.1367V32.0686Z" fill="#DFB66C"/>
<path d="M66.4277 29.7781H68.7184V32.0687H66.4277V29.7781Z" fill="#DFB66C"/>
<path d="M61.8467 29.7781H64.1373V32.0687H61.8467V29.7781Z" fill="#DFB66C"/>
<path d="M68.5467 45.8581C67.7849 44.5456 66.5351 43.5874 65.0697 43.1927C63.6043 42.7979 62.0423 42.9985 60.7243 43.7508L46.385 52.0313C45.3141 50.9827 43.8753 50.3949 42.3764 50.3935H29.1023L25.7351 47.0149C24.9892 46.2691 24.1035 45.6778 23.1287 45.2749C22.1539 44.872 21.1091 44.6654 20.0544 44.667H9.16247V42.3764C9.16247 42.0726 9.0418 41.7813 8.82701 41.5665C8.61223 41.3517 8.32091 41.2311 8.01716 41.2311H1.14531C0.841554 41.2311 0.55024 41.3517 0.335453 41.5665C0.120666 41.7813 0 42.0726 0 42.3764V67.5732C0 67.8769 0.120666 68.1682 0.335453 68.383C0.55024 68.5978 0.841554 68.7185 1.14531 68.7185H8.01716C8.32091 68.7185 8.61223 68.5978 8.82701 68.383C9.0418 68.1682 9.16247 67.8769 9.16247 67.5732V64.5152L23.1238 68.5009C23.6348 68.6429 24.1625 68.716 24.6929 68.7185H38.8603C39.8657 68.7194 40.8534 68.4547 41.7236 67.9511L66.4508 53.6806C67.766 52.9212 68.7257 51.6704 69.1188 50.2034C69.5118 48.7364 69.3061 47.1734 68.5467 45.8581ZM6.87185 66.4279H2.29062V43.5217H6.87185V66.4279ZM66.9089 49.6033C66.7924 50.0394 66.5908 50.448 66.3156 50.8058C66.0404 51.1636 65.6971 51.4633 65.3055 51.6877L40.5783 65.9697C40.0545 66.2675 39.4628 66.4253 38.8603 66.4279H24.6929C24.3747 66.4288 24.0582 66.3825 23.7537 66.2904L9.16247 62.133V46.9576H20.0544C20.8082 46.9543 21.5551 47.1015 22.2513 47.3906C22.9475 47.6797 23.579 48.1049 24.1087 48.6412L27.8195 52.352C28.0379 52.563 28.3291 52.6819 28.6327 52.6842H42.3764C42.8224 52.6818 43.2645 52.7676 43.6773 52.9367C44.09 53.1057 44.4653 53.3546 44.7816 53.6691C44.9288 53.8208 45.0665 53.9815 45.1939 54.1502C45.5941 54.7293 45.8097 55.4161 45.8123 56.1201C45.8096 57.0305 45.4468 57.9029 44.803 58.5467C44.1592 59.1904 43.2868 59.5533 42.3764 59.556H28.6327V61.8466H42.3764C43.3184 61.8523 44.247 61.6242 45.0791 61.1827C45.9111 60.7411 46.6206 60.1 47.1439 59.3168C47.6672 58.5335 47.9879 57.6327 48.0773 56.695C48.1668 55.7573 48.0221 54.812 47.6563 53.944L61.8696 45.7436C62.4577 45.4037 63.1334 45.2457 63.8113 45.2897C64.4892 45.3337 65.1388 45.5776 65.6781 45.9906C66.2174 46.4037 66.6222 46.9673 66.8413 47.6104C67.0603 48.2534 67.0839 48.9469 66.9089 49.6033Z" fill="#DFB66C"/>
<path d="M28 39L32.6667 33L37.3333 39L42 33" stroke="#DFB66C" stroke-width="1.5" stroke-linecap="round" stroke-linejoin="round"/>
</svg>
