<svg width="71" height="69" viewBox="0 0 71 69" fill="none" xmlns="http://www.w3.org/2000/svg">
<path d="M2.30811 1H4.61614V3.30804H2.30811V1Z" fill="#DFB66C"/>
<path d="M2.30811 5.61609H4.61614V7.92413H2.30811V5.61609Z" fill="#DFB66C"/>
<path d="M0 3.30798H2.30804V5.61602H0V3.30798Z" fill="#DFB66C"/>
<path d="M4.61597 3.30798H6.92401V5.61602H4.61597V3.30798Z" fill="#DFB66C"/>
<path d="M64.625 1H66.933V3.30804H64.625V1Z" fill="#DFB66C"/>
<path d="M64.625 5.61609H66.933V7.92413H64.625V5.61609Z" fill="#DFB66C"/>
<path d="M66.9331 3.30798H69.2411V5.61602H66.9331V3.30798Z" fill="#DFB66C"/>
<path d="M62.3171 3.30798H64.6252V5.61602H62.3171V3.30798Z" fill="#DFB66C"/>
<path d="M41.6914 31.3171C41.28 30.8943 40.6132 30.8943 40.2017 31.3171L34.2978 37.3855L31.7985 34.8166C31.387 34.3938 30.7202 34.3938 30.3086 34.8166C29.8971 35.2395 29.8971 35.9251 30.3086 36.3481L33.5528 39.6828C33.7585 39.8942 34.0281 40 34.2977 40C34.5673 40 34.8369 39.8942 35.0427 39.6828L41.6914 32.8486C42.1028 32.4257 42.1028 31.7401 41.6914 31.3171Z" fill="#DFB66C"/>
<path d="M42.2316 20.6156C44.3571 20.6131 46.3949 19.7677 47.8979 18.2647C49.4009 16.7617 50.2463 14.7239 50.2487 12.5984C50.2487 12.2946 50.1281 12.0033 49.9133 11.7885C49.6985 11.5738 49.4072 11.4531 49.1034 11.4531H42.2316C41.1639 11.4525 40.1071 11.6661 39.1234 12.0811C38.1398 12.4962 37.2494 13.1044 36.505 13.8697V9.16247H42.2316C44.3571 9.16004 46.3949 8.3146 47.8979 6.81162C49.4009 5.30863 50.2463 3.27085 50.2487 1.14531C50.2487 0.841554 50.1281 0.55024 49.9133 0.335453C49.6985 0.120666 49.4072 0 49.1034 0H42.2316C40.846 0.000271368 39.4843 0.360338 38.2797 1.04495C37.0751 1.72956 36.0689 2.71524 35.3597 3.9055C34.6505 2.71524 33.6443 1.72956 32.4397 1.04495C31.2351 0.360338 29.8734 0.000271368 28.4879 0H21.616C21.3123 0 21.0209 0.120666 20.8062 0.335453C20.5914 0.55024 20.4707 0.841554 20.4707 1.14531C20.4731 3.27085 21.3186 5.30863 22.8216 6.81162C24.3245 8.3146 26.3623 9.16004 28.4879 9.16247H34.2144V13.8697C33.47 13.1044 32.5796 12.4962 31.596 12.0811C30.6124 11.6661 29.5555 11.4525 28.4879 11.4531H21.616C21.3123 11.4531 21.0209 11.5738 20.8062 11.7885C20.5914 12.0033 20.4707 12.2946 20.4707 12.5984C20.4731 14.7239 21.3186 16.7617 22.8216 18.2647C24.3245 19.7677 26.3623 20.6131 28.4879 20.6156H34.2144V22.9634C30.9858 23.2582 27.995 24.7862 25.8643 27.2298C23.7336 29.6733 22.6268 32.8442 22.7744 36.0829C22.9219 39.3216 24.3123 42.3788 26.6563 44.6185C29.0004 46.8582 32.1177 48.1081 35.3597 48.1081C38.6018 48.1081 41.719 46.8582 44.0631 44.6185C46.4071 42.3788 47.7975 39.3216 47.9451 36.0829C48.0926 32.8442 46.9859 29.6733 44.8551 27.2298C42.7244 24.7862 39.7337 23.2582 36.505 22.9634V20.6156H42.2316ZM42.2316 13.7437H47.8436C47.5778 15.0363 46.8744 16.1977 45.8522 17.0322C44.8299 17.8667 43.5512 18.3233 42.2316 18.3249H36.6196C36.8854 17.0324 37.5887 15.8709 38.611 15.0364C39.6332 14.2019 40.9119 13.7454 42.2316 13.7437ZM42.2316 2.29062H47.8436C47.5778 3.5832 46.8744 4.74462 45.8522 5.57912C44.8299 6.41363 43.5512 6.87019 42.2316 6.87185H36.6196C36.8854 5.57927 37.5887 4.41785 38.611 3.58335C39.6332 2.74884 40.9119 2.29228 42.2316 2.29062ZM28.4879 6.87185C27.1682 6.87019 25.8895 6.41363 24.8673 5.57912C23.845 4.74462 23.1417 3.5832 22.8759 2.29062H28.4879C29.8075 2.29228 31.0862 2.74884 32.1085 3.58335C33.1307 4.41785 33.8341 5.57927 34.0999 6.87185H28.4879ZM28.4879 18.3249C27.1682 18.3233 25.8895 17.8667 24.8673 17.0322C23.845 16.1977 23.1417 15.0363 22.8759 13.7437H28.4879C29.8075 13.7454 31.0862 14.2019 32.1085 15.0364C33.1307 15.8709 33.8341 17.0324 34.0999 18.3249H28.4879ZM45.6675 35.5046C45.6675 37.5433 45.063 39.5362 43.9303 41.2313C42.7977 42.9264 41.1878 44.2475 39.3043 45.0277C37.4208 45.8079 35.3483 46.012 33.3488 45.6143C31.3493 45.2166 29.5126 44.2348 28.071 42.7933C26.6294 41.3517 25.6477 39.515 25.25 37.5155C24.8523 35.516 25.0564 33.4435 25.8366 31.56C26.6167 29.6765 27.9379 28.0666 29.633 26.934C31.3281 25.8013 33.321 25.1968 35.3597 25.1968C38.0922 25.201 40.7116 26.2884 42.6437 28.2206C44.5759 30.1527 45.6632 32.7721 45.6675 35.5046Z" fill="#DFB66C"/>
<path d="M10.1621 13.7437H12.4527V16.0343H10.1621V13.7437Z" fill="#DFB66C"/>
<path d="M10.1621 18.325H12.4527V20.6156H10.1621V18.325Z" fill="#DFB66C"/>
<path d="M7.87109 16.0343H10.1617V18.3249H7.87109V16.0343Z" fill="#DFB66C"/>
<path d="M12.4531 16.0343H14.7437V18.3249H12.4531V16.0343Z" fill="#DFB66C"/>
<path d="M3.29102 27.4874H5.58163V29.778H3.29102V27.4874Z" fill="#DFB66C"/>
<path d="M3.29102 32.0686H5.58163V34.3592H3.29102V32.0686Z" fill="#DFB66C"/>
<path d="M1 29.7781H3.29062V32.0687H1V29.7781Z" fill="#DFB66C"/>
<path d="M5.58105 29.7781H7.87167V32.0687H5.58105V29.7781Z" fill="#DFB66C"/>
<path d="M58.2656 13.7437H60.5562V16.0343H58.2656V13.7437Z" fill="#DFB66C"/>
<path d="M58.2656 18.325H60.5562V20.6156H58.2656V18.325Z" fill="#DFB66C"/>
<path d="M60.5566 16.0343H62.8473V18.3249H60.5566V16.0343Z" fill="#DFB66C"/>
<path d="M55.9746 16.0343H58.2652V18.3249H55.9746V16.0343Z" fill="#DFB66C"/>
<path d="M65.1367 27.4874H67.4273V29.778H65.1367V27.4874Z" fill="#DFB66C"/>
<path d="M65.1367 32.0686H67.4273V34.3592H65.1367V32.0686Z" fill="#DFB66C"/>
<path d="M67.4277 29.7781H69.7184V32.0687H67.4277V29.7781Z" fill="#DFB66C"/>
<path d="M62.8467 29.7781H65.1373V32.0687H62.8467V29.7781Z" fill="#DFB66C"/>
<path d="M69.5467 45.8581C68.7849 44.5456 67.5351 43.5874 66.0697 43.1927C64.6043 42.7979 63.0423 42.9985 61.7243 43.7508L47.385 52.0313C46.3141 50.9827 44.8753 50.3949 43.3764 50.3935H30.1023L26.7351 47.0149C25.9892 46.2691 25.1035 45.6778 24.1287 45.2749C23.1539 44.872 22.1091 44.6654 21.0544 44.667H10.1625V42.3764C10.1625 42.0726 10.0418 41.7813 9.82701 41.5665C9.61223 41.3517 9.32091 41.2311 9.01716 41.2311H2.14531C1.84155 41.2311 1.55024 41.3517 1.33545 41.5665C1.12067 41.7813 1 42.0726 1 42.3764V67.5732C1 67.8769 1.12067 68.1682 1.33545 68.383C1.55024 68.5978 1.84155 68.7185 2.14531 68.7185H9.01716C9.32091 68.7185 9.61223 68.5978 9.82701 68.383C10.0418 68.1682 10.1625 67.8769 10.1625 67.5732V64.5152L24.1238 68.5009C24.6348 68.6429 25.1625 68.716 25.6929 68.7185H39.8603C40.8657 68.7194 41.8534 68.4547 42.7236 67.9511L67.4508 53.6806C68.766 52.9212 69.7257 51.6704 70.1188 50.2034C70.5118 48.7364 70.3061 47.1734 69.5467 45.8581ZM7.87185 66.4279H3.29062V43.5217H7.87185V66.4279ZM67.9089 49.6033C67.7924 50.0394 67.5908 50.448 67.3156 50.8058C67.0404 51.1636 66.6971 51.4633 66.3055 51.6877L41.5783 65.9697C41.0545 66.2675 40.4628 66.4253 39.8603 66.4279H25.6929C25.3747 66.4288 25.0582 66.3825 24.7537 66.2904L10.1625 62.133V46.9576H21.0544C21.8082 46.9543 22.5551 47.1015 23.2513 47.3906C23.9475 47.6797 24.579 48.1049 25.1087 48.6412L28.8195 52.352C29.0379 52.563 29.3291 52.6819 29.6327 52.6842H43.3764C43.8224 52.6818 44.2645 52.7676 44.6773 52.9367C45.09 53.1057 45.4653 53.3546 45.7816 53.6691C45.9288 53.8208 46.0665 53.9815 46.1939 54.1502C46.5941 54.7293 46.8097 55.4161 46.8123 56.1201C46.8096 57.0305 46.4468 57.9029 45.803 58.5467C45.1592 59.1904 44.2868 59.5533 43.3764 59.556H29.6327V61.8466H43.3764C44.3184 61.8523 45.247 61.6242 46.0791 61.1827C46.9111 60.7411 47.6206 60.1 48.1439 59.3168C48.6672 58.5335 48.9879 57.6327 49.0773 56.695C49.1668 55.7573 49.0221 54.812 48.6563 53.944L62.8696 45.7436C63.4577 45.4037 64.1334 45.2457 64.8113 45.2897C65.4892 45.3337 66.1388 45.5776 66.6781 45.9906C67.2174 46.4037 67.6222 46.9673 67.8413 47.6104C68.0603 48.2534 68.0839 48.9469 67.9089 49.6033Z" fill="#DFB66C"/>
</svg>
