<svg width="54" height="52" viewBox="0 0 54 52" fill="none" xmlns="http://www.w3.org/2000/svg">
<path d="M51.3503 0.655273H3.29228C1.92761 0.655273 0.821289 1.74036 0.821289 3.07885V10.2419C0.821289 11.5804 1.92761 12.6655 3.29228 12.6655H10.6394V22.3598C9.34346 23.8139 3.8963 30.126 3.23737 34.3053C3.23325 34.3591 3.23325 34.4132 3.23737 34.4669V50.4625C3.23737 51.0574 3.7291 51.5397 4.33559 51.5397H17.646C18.0054 51.5391 18.3417 51.3661 18.5465 51.0765L24.1694 43.1379C24.2397 43.036 24.2917 42.9232 24.3232 42.804C24.3232 42.6317 24.9052 40.7143 25.5532 38.0861H42.905C43.5115 38.0861 44.0032 37.6038 44.0032 37.009V12.6655H51.3503C52.715 12.6655 53.8213 11.5804 53.8213 10.2419V3.07885C53.8213 1.74036 52.715 0.655273 51.3503 0.655273ZM25.6081 26.636C24.7984 31.8335 23.68 36.9804 22.2585 42.05L17.0639 49.3746H5.42282V34.5962C5.85113 32.1403 8.53078 28.3703 10.6394 25.7743V37.009C10.6394 37.6038 11.1311 38.0861 11.7376 38.0861H15.7021C15.8375 38.085 15.9716 38.0596 16.0975 38.0107L16.2183 37.9461C16.297 37.9081 16.3707 37.8611 16.438 37.8061L16.5368 37.6983C16.5877 37.6386 16.6319 37.5735 16.6686 37.5045L16.7345 37.3644C16.7345 37.3644 16.7345 37.3644 16.7345 37.289C17.8327 33.3036 20.2268 26.4206 22.0389 24.8911C23.2689 23.8139 23.9827 23.6954 24.2902 23.6954C24.5222 23.6903 24.7427 23.7944 24.8832 23.9755C25.4212 24.7579 25.6764 25.6946 25.6081 26.636ZM41.8068 35.9318H26.0803C26.7612 33.0128 27.4531 29.6521 27.7935 26.8946C27.9275 25.3581 27.4863 23.8266 26.5525 22.586C26.0027 21.9561 25.2016 21.5907 24.3561 21.5842C22.9572 21.7051 21.6484 22.3125 20.6661 23.2969C18.1182 25.4512 15.6802 33.3036 14.9004 35.9749H12.8358V7.78598H41.8068V35.9318ZM51.6249 10.2311C51.6249 10.3799 51.502 10.5004 51.3503 10.5004H44.0032V7.78598H45.991C46.5975 7.78598 47.0892 7.30369 47.0892 6.70884C47.0892 6.11398 46.5975 5.63169 45.991 5.63169H8.65158C8.04509 5.63169 7.55337 6.11398 7.55337 6.70884C7.55337 7.30369 8.04509 7.78598 8.65158 7.78598H10.6503V10.5542H3.29228C3.14059 10.5542 3.01773 10.4337 3.01773 10.285V3.07885C3.01773 2.93007 3.14059 2.80957 3.29228 2.80957H51.3503C51.502 2.80957 51.6249 2.93007 51.6249 3.07885V10.2311Z" fill="#DFB66C"/>
</svg>
