<svg width="50" height="51" viewBox="0 0 50 51" fill="none" xmlns="http://www.w3.org/2000/svg">
<path fill-rule="evenodd" clip-rule="evenodd" d="M28.7292 48.5127C32.2836 47.9407 35.569 46.5644 38.3927 44.5763C37.6446 43.4688 36.349 42.384 34.6195 41.4882C34.2055 41.2738 33.7698 41.0718 33.3149 40.8843C32.0107 44.1939 30.3821 46.8379 28.7292 48.5127ZM33.9039 39.2781C34.4265 39.4914 34.9282 39.7228 35.4058 39.9702C37.2527 40.9268 38.7907 42.1502 39.7553 43.5403C44.6682 39.5129 47.9045 33.5161 48.2582 26.7558H36.0873C35.9761 31.3662 35.1381 35.6518 33.9039 39.2781ZM34.3771 26.7558C34.2664 31.1679 33.4635 35.2569 32.2947 38.7002C30.8875 38.26 29.3691 37.9469 27.7905 37.7943C27.155 37.7329 26.5086 37.6974 25.8548 37.6903V26.7558H34.3771ZM36.0945 25.0462H48.2857C48.1405 17.7606 44.6499 11.2956 39.287 7.1243C37.4736 8.86058 35.4784 10.1359 33.4099 11.0256C34.937 14.9709 36.0103 19.8062 36.0945 25.0462ZM31.8119 11.6332C33.2665 15.3877 34.3004 20.0174 34.3847 25.0462H25.8548V12.691C27.8206 12.6213 29.8364 12.2896 31.8119 11.6332ZM32.754 9.44614C34.5525 8.66955 36.2864 7.57539 37.8734 6.10701C35.0004 4.19794 31.6792 2.90964 28.1014 2.43357C29.7084 3.89321 31.3668 6.32825 32.754 9.44614ZM25.8548 2.88963C26.249 3.10501 26.742 3.4677 27.3198 4.05236C28.3999 5.14516 29.5571 6.79865 30.6216 8.93099C30.802 9.29228 30.9789 9.66571 31.1516 10.0506C29.3989 10.6203 27.6091 10.9137 25.8548 10.9808V2.88963ZM21.8985 2.43357C18.4207 2.89634 15.1854 4.12657 12.3685 5.94842C13.1284 7.0104 14.3894 8.0453 16.0509 8.90586C16.4295 9.10196 16.8263 9.28763 17.2393 9.46136C18.6278 6.33618 20.289 3.89559 21.8985 2.43357ZM18.8485 10.0504C19.0212 9.66559 19.198 9.29222 19.3784 8.93099C20.4428 6.79865 21.6001 5.14516 22.6801 4.05236C23.258 3.4677 23.751 3.10501 24.1452 2.88963V10.9755C23.7753 10.9592 23.4081 10.9333 23.0443 10.8981C21.565 10.7551 20.1498 10.4605 18.8485 10.0504ZM16.5843 11.0405C16.1271 10.8484 15.6864 10.6424 15.2646 10.4239C13.451 9.48452 11.9353 8.2879 10.9678 6.92889C5.46087 11.0921 1.86174 17.6458 1.7143 25.0462H13.9055C13.9896 19.8128 15.0603 14.9831 16.5843 11.0405ZM15.6153 25.0462C15.6996 20.0178 16.7333 15.3885 18.1877 11.6341C19.6472 12.1058 21.2307 12.4404 22.8798 12.5998C23.2973 12.6401 23.7194 12.6693 24.1452 12.6865V25.0462H15.6153ZM13.9127 26.7558H1.74185C2.10695 33.7354 5.54478 39.9012 10.728 43.9259C12.4316 42.1429 14.3163 40.7966 16.2851 39.8197C14.948 36.0817 14.0295 31.5979 13.9127 26.7558ZM17.8526 39.125C16.6042 35.5953 15.7382 31.3508 15.6228 26.7558H24.1452V37.7369C22.0565 37.8743 19.9234 38.3123 17.8526 39.125ZM16.9027 41.4234C15.2156 42.2795 13.6013 43.4336 12.131 44.9345C14.8342 46.7298 17.9339 47.9757 21.2708 48.5127C19.7086 46.9299 18.1681 44.4813 16.9027 41.4234ZM18.4629 40.7224C20.3273 39.9882 22.2514 39.5847 24.1452 39.4499V48.5762C23.7044 48.3642 23.1623 47.9866 22.5359 47.3605C21.4497 46.2748 20.3059 44.6297 19.2622 42.5004C18.9859 41.9367 18.7186 41.3432 18.4629 40.7224ZM25.8548 48.5762V39.3997C26.4521 39.4069 27.0435 39.4396 27.626 39.4959C29.0611 39.6346 30.4359 39.9161 31.7048 40.3071C31.399 41.0796 31.0751 41.8122 30.7378 42.5004C29.6941 44.6297 28.5502 46.2748 27.4641 47.3605C26.8377 47.9866 26.2955 48.3642 25.8548 48.5762ZM25 50.5193C38.8071 50.5193 50 39.3264 50 25.5193C50 11.7122 38.8071 0.519287 25 0.519287C11.1929 0.519287 0 11.7122 0 25.5193C0 39.3264 11.1929 50.5193 25 50.5193Z" fill="#DFB66C"/>
</svg>
