<svg width="46" height="53" viewBox="0 0 46 53" fill="none" xmlns="http://www.w3.org/2000/svg">
<path fill-rule="evenodd" clip-rule="evenodd" d="M33.2324 13.1879C33.2324 18.7325 28.7376 23.2274 23.193 23.2274C17.6483 23.2274 13.1535 18.7325 13.1535 13.1879C13.1535 7.64325 17.6483 3.14843 23.193 3.14843C28.7376 3.14843 33.2324 7.64325 33.2324 13.1879ZM35.6793 13.1879C35.6793 20.0839 30.089 25.6742 23.193 25.6742C16.297 25.6742 10.7066 20.0839 10.7066 13.1879C10.7066 6.29189 16.297 0.701584 23.193 0.701584C30.089 0.701584 35.6793 6.29189 35.6793 13.1879ZM41.6005 45.0056C42.2881 46.6657 42.7466 48.4077 42.9663 50.1836H23.1926H3.41895C3.6387 48.4077 4.09716 46.6657 4.7848 45.0056C5.7861 42.5883 7.25372 40.3918 9.10388 38.5417C10.954 36.6915 13.1505 35.2239 15.5679 34.2226C17.9852 33.2213 20.5761 32.7059 23.1926 32.7059C25.8092 32.7059 28.4001 33.2213 30.8174 34.2226C33.2348 35.2239 35.4312 36.6915 37.2814 38.5417C39.1315 40.3918 40.5992 42.5883 41.6005 45.0056ZM43.8611 44.0693C44.6719 46.0268 45.1989 48.0857 45.4298 50.1836C45.519 50.9946 45.564 51.8114 45.564 52.6304H43.1171H23.1926L3.26814 52.6304H0.821289C0.821289 51.8114 0.866265 50.9946 0.955501 50.1836C1.18635 48.0857 1.71338 46.0268 2.52421 44.0693C3.64847 41.3551 5.29633 38.8889 7.3737 36.8115C9.45107 34.7341 11.9173 33.0863 14.6315 31.962C17.3457 30.8377 20.2548 30.2591 23.1926 30.2591C26.1305 30.2591 29.0396 30.8377 31.7538 31.962C34.468 33.0863 36.9342 34.7341 39.0116 36.8115C41.0889 38.8889 42.7368 41.3551 43.8611 44.0693Z" fill="#DFB66C"/>
</svg>
