<svg width="54" height="53" viewBox="0 0 54 53" fill="none" xmlns="http://www.w3.org/2000/svg">
<path d="M40.2516 35.1733H35.1603C36.2266 34.4562 37.1561 33.5004 37.8604 32.3283C39.1075 30.2528 39.4715 27.816 38.8852 25.4667C38.4944 23.9006 37.7123 22.4984 36.6192 21.3683L36.5372 20.8396C36.2133 18.7553 35.8102 16.1612 35.6651 15.0082C35.5225 13.8759 34.9136 12.8382 33.9944 12.161L27.1097 7.08863C25.9841 6.25922 24.6493 5.80238 23.2497 5.76759C18.6412 5.65296 15.1623 5.39389 13.6574 5.05468L13.6155 5.03066L13.792 4.737C14.2282 4.01125 13.9928 3.06515 13.2673 2.62788L10.491 0.955718C10.1388 0.743345 9.72487 0.681218 9.32588 0.780518C8.92669 0.879715 8.59016 1.12854 8.37844 1.481L1.04048 13.6936C0.604206 14.4196 0.839642 15.3657 1.56511 15.8026L4.34124 17.4748C4.58413 17.6211 4.85613 17.6961 5.13248 17.6961C5.25709 17.6961 5.38262 17.6808 5.50661 17.65C5.596 17.6277 5.68217 17.598 5.76452 17.5613L7.55426 20.3571C8.52874 21.8602 9.90675 23.0446 11.5392 23.7823L15.1679 25.4221L21.1192 28.9958C21.495 31.5325 22.891 33.7457 25.0131 35.1734H20.0674C19.3156 35.1734 18.7039 35.7849 18.7039 36.5364V38.2236C18.7039 38.9751 19.3156 39.5865 20.0674 39.5865H40.2515C41.0033 39.5865 41.6149 38.9751 41.6149 38.2236V36.5364C41.615 35.7848 41.0034 35.1733 40.2516 35.1733ZM2.3723 14.4934L1.70639 14.0935L2.3723 14.4934ZM5.25222 15.9333C5.24662 15.9423 5.24113 15.9513 5.23585 15.9605L5.1301 16.1366L2.38028 14.4802L9.70239 2.29405L12.4522 3.95026L5.25222 15.9333ZM19.9273 25.5445L19.5195 26.2232L15.9292 24.0673C15.9033 24.0518 15.8765 24.0378 15.8492 24.0254L12.1792 22.3669C10.8187 21.752 9.67028 20.7649 8.86061 19.516L6.82372 16.3341L12.8154 6.36215L12.9826 6.45814C13.0461 6.49458 13.1145 6.52182 13.1857 6.53911C15.3033 7.05435 20.3759 7.24954 23.2111 7.32005C24.2906 7.34697 25.3199 7.69923 26.1878 8.33873L33.0727 13.4113C33.6508 13.8373 34.0338 14.49 34.1236 15.2022C34.2455 16.1699 34.5415 18.108 34.824 19.9314C34.8015 19.9176 34.779 19.904 34.7564 19.8904C33.5452 19.1631 32.1912 18.7344 30.8043 18.6245L29.8489 16.345C29.7949 16.2162 29.7072 16.1044 29.595 16.0212L26.8931 14.0196C26.7066 13.8813 26.468 13.8338 26.2424 13.89L19.4035 15.5961C19.3379 15.6125 19.2748 15.6374 19.2156 15.6701C18.1856 16.2397 17.5238 17.7085 17.7993 18.8123L17.8056 18.8375C17.9743 19.5136 18.3947 20.0823 18.9891 20.4392C19.8345 20.9465 21.3676 21.8669 22.7174 22.6773C22.8761 22.7726 23.0346 22.8785 23.1917 22.9935C23.1922 22.9939 23.1926 22.9943 23.1932 22.9946C23.2143 23.0119 23.236 23.0279 23.2583 23.0426C24.8332 24.2234 26.2665 26.3115 26.5886 27.9792C26.7003 28.5575 26.6543 29.0179 26.4588 29.2758C26.442 29.2979 26.4264 29.321 26.4121 29.3448C26.2162 29.6707 26.0137 29.7241 25.8414 29.7332C25.7179 29.7402 25.5752 29.7196 25.4197 29.6737C26.0218 28.2106 25.4803 26.4826 24.083 25.6437L22.7465 24.8411C21.7748 24.2582 20.5107 24.5739 19.9273 25.5445ZM29.1292 18.6474C28.922 18.6695 28.7151 18.6988 28.5087 18.7353C26.6131 19.0715 24.8795 19.9985 23.5579 21.3708C23.5443 21.3625 23.5307 21.3542 23.5172 21.3461C22.1672 20.5355 20.6339 19.6151 19.7885 19.1077C19.55 18.9645 19.3809 18.735 19.3129 18.4624L19.3067 18.4372C19.206 18.0339 19.5127 17.3447 19.8961 17.0742L26.2625 15.486L28.4982 17.1423L29.1292 18.6474ZM20.8514 27.023L21.2592 26.3443C21.4015 26.1076 21.7097 26.0308 21.9464 26.1729L23.2829 26.9755C23.967 27.3863 24.259 28.2044 24.0355 28.935L20.8514 27.023ZM22.983 30.1149L23.944 30.692C23.9441 30.692 23.9442 30.6921 23.9442 30.6922C23.9443 30.6923 23.9445 30.6924 23.9446 30.6924L23.9814 30.7145C24.6158 31.0955 25.2243 31.2881 25.7922 31.2881C25.8362 31.2881 25.8801 31.2869 25.9237 31.2846C26.4144 31.2585 26.8486 31.0877 27.2087 30.7838C27.3206 31.4568 28.4187 32.1887 29.854 32.2242V32.5747C29.854 32.7375 30.0418 32.8877 30.2797 32.8877C30.4926 32.8877 30.7055 32.7374 30.7055 32.5747V32.1867C32.1079 31.9613 33.0721 31.0725 33.0721 29.5328C33.0721 27.8303 31.82 27.267 30.7055 26.8538V24.6507C31.5444 24.7132 31.8325 25.1139 32.1831 25.1139C32.6464 25.1139 32.8467 24.538 32.8467 24.2501C32.8467 23.524 31.5195 23.2862 30.7055 23.2611V22.9357C30.7055 22.7729 30.4925 22.6228 30.2797 22.6228C30.0418 22.6228 29.854 22.773 29.854 22.9357V23.2862C28.6018 23.449 27.4247 24.1374 27.4247 25.7273C27.4247 25.7314 27.4247 25.7354 27.4248 25.7395C26.8032 24.4927 25.8636 23.2564 24.8106 22.3128C25.8874 21.2504 27.2716 20.532 28.78 20.2646C29.2626 20.1791 29.7492 20.1416 30.233 20.1508C30.2505 20.1518 30.268 20.1522 30.2856 20.152C31.572 20.1857 32.8375 20.5501 33.9562 21.2219C34.4475 21.5169 34.8976 21.8615 35.3013 22.2486C35.331 22.2833 35.3637 22.3151 35.3988 22.3439C36.3576 23.2976 37.0418 24.497 37.3775 25.8426C37.8633 27.7893 37.5618 29.8085 36.5284 31.5284C34.3949 35.0787 29.7701 36.2323 26.2185 34.0997C24.6762 33.1738 23.5493 31.7693 22.983 30.1149ZM29.8541 28.2435V30.7346C28.788 30.6135 28.4016 29.8479 27.9466 29.7983C28.2138 29.2245 28.2721 28.5044 28.1138 27.685C28.0858 27.5404 28.0514 27.3935 28.011 27.2451C28.4919 27.7325 29.1979 27.9983 29.8541 28.2435ZM28.9525 25.5646C28.9525 25.0889 29.3282 24.7884 29.9543 24.6883V26.5785C29.3782 26.3532 28.9525 26.1154 28.9525 25.5646ZM30.6054 30.7221V28.5439C31.1439 28.7818 31.5445 29.0821 31.5445 29.6956C31.5445 30.2839 31.1564 30.6094 30.6054 30.7221ZM40.0613 38.0334H20.2576V36.7266H40.0612V38.0334H40.0613Z" fill="#DFB66C"/>
<path d="M50.5165 29.7347H40.9823C40.5532 29.7347 40.2055 30.0824 40.2055 30.5113C40.2055 30.9402 40.5532 31.2879 40.9823 31.2879H50.5165C51.4994 31.2879 52.2993 32.0874 52.2993 33.0701V49.4576C52.2993 50.4403 51.4994 51.2398 50.5165 51.2398H9.65778C8.67482 51.2398 7.87498 50.4403 7.87498 49.4576V33.0701C7.87498 32.0874 8.67482 31.2879 9.65778 31.2879H19.1837C19.6128 31.2879 19.9605 30.9402 19.9605 30.5113C19.9605 30.0824 19.6128 29.7347 19.1837 29.7347H9.65778C7.81801 29.7347 6.32129 31.231 6.32129 33.0701V49.4576C6.32129 51.2967 7.81801 52.793 9.65778 52.793H50.5165C52.3562 52.793 53.853 51.2967 53.853 49.4576V33.0701C53.853 31.231 52.3562 29.7347 50.5165 29.7347Z" fill="#DFB66C"/>
</svg>
