<svg width="35" height="35" viewBox="0 0 35 35" fill="none" xmlns="http://www.w3.org/2000/svg">
<path d="M27.0637 34.2138C26.7231 34.2128 26.3835 34.1755 26.0507 34.1024C19.7163 32.7925 13.8806 29.7211 9.21524 25.2418C4.64947 20.7527 1.48286 15.0371 0.0985463 8.78652C-0.0646818 8.00751 -0.0246192 7.19961 0.21488 6.44056C0.454379 5.68151 0.885254 4.99685 1.46605 4.45244L5.51792 0.553794C5.72487 0.35814 5.97077 0.208312 6.23957 0.114089C6.50837 0.0198665 6.79402 -0.0166338 7.07789 0.00697063C7.37222 0.0376666 7.65625 0.13245 7.91001 0.284654C8.16376 0.436859 8.38108 0.642789 8.54669 0.887963L13.6115 8.37134C13.8015 8.66171 13.8931 9.00535 13.8731 9.3517C13.853 9.69806 13.7223 10.0288 13.5001 10.2953L10.9575 13.3333C11.9702 15.5737 13.4042 17.5985 15.1816 19.2977C16.9475 21.0584 19.0348 22.4644 21.3303 23.4394L24.4807 20.9381C24.7452 20.7291 25.0672 20.6055 25.4038 20.5838C25.7403 20.5621 26.0755 20.6433 26.3648 20.8166L34.0127 25.7583C34.2751 25.9149 34.4987 26.1289 34.6667 26.3842C34.8347 26.6395 34.9427 26.9295 34.9826 27.2325C35.0226 27.5354 34.9934 27.8435 34.8974 28.1336C34.8013 28.4237 34.6409 28.6883 34.428 28.9076L30.4774 32.8164C30.0287 33.2628 29.496 33.616 28.9102 33.8559C28.3243 34.0957 27.6968 34.2173 27.0637 34.2138ZM6.91581 2.01199L2.86394 5.91063C2.53721 6.21498 2.29535 6.59911 2.16215 7.02523C2.02894 7.45135 2.00898 7.90479 2.10422 8.34096C3.39142 14.2063 6.35029 19.5734 10.6233 23.7938C15.0137 28.0079 20.5054 30.8968 26.4661 32.1278C26.9172 32.2221 27.3848 32.203 27.8268 32.0722C28.2687 31.9414 28.6713 31.703 28.9985 31.3784L32.9491 27.4696L25.5645 22.7001L22.1812 25.3937C22.0517 25.4962 21.8991 25.5655 21.7366 25.5955C21.5742 25.6255 21.4069 25.6153 21.2493 25.5659C18.44 24.5312 15.8942 22.8887 13.7939 20.7559C11.6214 18.7278 9.93508 16.2355 8.86071 13.4649C8.81525 13.2972 8.81374 13.1206 8.85632 12.9521C8.8989 12.7836 8.98413 12.6289 9.10382 12.5029L11.8388 9.23208L6.91581 2.01199Z" fill="#DFB66C"/>
</svg>
