<svg width="26" height="38" viewBox="0 0 26 38" fill="none" xmlns="http://www.w3.org/2000/svg">
<path d="M13 7C11.6155 7 10.2622 7.41054 9.11101 8.17971C7.95987 8.94888 7.06266 10.0421 6.53285 11.3212C6.00303 12.6003 5.86441 14.0078 6.13451 15.3656C6.4046 16.7235 7.07129 17.9708 8.05026 18.9497C9.02922 19.9287 10.2765 20.5954 11.6344 20.8655C12.9922 21.1356 14.3997 20.997 15.6788 20.4672C16.9579 19.9373 18.0511 19.0401 18.8203 17.889C19.5895 16.7378 20 15.3845 20 14C20 12.1435 19.2625 10.363 17.9497 9.05025C16.637 7.7375 14.8565 7 13 7ZM13 18.5567C12.0988 18.5567 11.2178 18.2895 10.4684 17.7888C9.71908 17.2881 9.13503 16.5764 8.79014 15.7438C8.44526 14.9111 8.35502 13.9949 8.53084 13.111C8.70666 12.2271 9.14065 11.4152 9.77792 10.7779C10.4152 10.1406 11.2271 9.70666 12.111 9.53084C12.9949 9.35501 13.9112 9.44525 14.7438 9.79014C15.5764 10.135 16.2881 10.7191 16.7888 11.4684C17.2895 12.2178 17.5567 13.0988 17.5567 14C17.5535 15.2064 17.072 16.3623 16.2178 17.2142C15.3636 18.0661 14.2064 18.5445 13 18.5445V18.5567Z" fill="#DFB66C"/>
<path d="M12.9945 1.15496e-09C9.55856 0.0030353 6.26337 1.44403 3.82864 4.00825C1.39391 6.57248 0.0174845 10.0516 0 13.6856C0 19.1342 2.89011 23.696 5.00806 27.0212L5.39414 27.6279C7.50137 30.8581 9.76194 33.9733 12.1672 36.9616L13.0055 38L13.8439 36.9616C16.2488 33.9731 18.5093 30.8578 20.6169 27.6279L21.003 27.0095C23.1099 23.6844 26 19.1342 26 13.6856C25.9825 10.0495 24.6046 6.5687 22.1674 4.00414C19.7303 1.43959 16.4323 -4.70842e-05 12.9945 1.15496e-09ZM19.1608 25.6678L18.7637 26.2862C16.8664 29.2963 14.3513 32.6681 12.9945 34.3365C11.6928 32.6681 9.12261 29.2963 7.22529 26.2862L6.8392 25.6678C4.88672 22.5877 2.20619 18.3758 2.20619 13.6389C2.20619 12.1405 2.48524 10.6567 3.0274 9.27232C3.56957 7.88794 4.36423 6.63005 5.36601 5.57049C6.3678 4.51093 7.55709 3.67043 8.86598 3.097C10.1749 2.52357 11.5777 2.22843 12.9945 2.22843C14.4112 2.22843 15.8141 2.52357 17.123 3.097C18.4319 3.67043 19.6212 4.51093 20.623 5.57049C21.6247 6.63005 22.4194 7.88794 22.9616 9.27232C23.5037 10.6567 23.7828 12.1405 23.7828 13.6389C23.7828 18.4225 21.1133 22.6343 19.1608 25.6678Z" fill="#DFB66C"/>
<path d="M12.9945 1.15496e-09C9.55856 0.0030353 6.26337 1.44403 3.82864 4.00825C1.39391 6.57248 0.0174845 10.0516 0 13.6856C0 19.1342 2.89012 23.696 5.00806 27.0212L5.39414 27.6279C7.50137 30.8581 9.76194 33.9733 12.1672 36.9616C12.5984 37.4958 13.4126 37.4958 13.8439 36.9616C16.2488 33.9731 18.5093 30.8578 20.6169 27.6279L21.003 27.0095C23.1099 23.6844 26 19.1342 26 13.6856C25.9825 10.0495 24.6046 6.5687 22.1674 4.00414C19.7303 1.43959 16.4323 -4.70842e-05 12.9945 1.15496e-09ZM19.1608 25.6678L18.7637 26.2862C16.8664 29.2963 14.3513 32.6681 12.9945 34.3365C11.6928 32.6681 9.12261 29.2963 7.22529 26.2862L6.8392 25.6678C4.88672 22.5877 2.20619 18.3758 2.20619 13.6389C2.20619 12.1405 2.48524 10.6567 3.0274 9.27232C3.56957 7.88794 4.36423 6.63005 5.36601 5.57049C6.3678 4.51093 7.55709 3.67043 8.86598 3.097C10.1749 2.52357 11.5777 2.22843 12.9945 2.22843C14.4112 2.22843 15.8141 2.52357 17.123 3.097C18.4319 3.67043 19.6212 4.51093 20.623 5.57049C21.6247 6.63005 22.4194 7.88794 22.9616 9.27232C23.5037 10.6567 23.7828 12.1405 23.7828 13.6389C23.7828 18.4225 21.1133 22.6343 19.1608 25.6678Z" fill="#DFB66C"/>
</svg>
