<svg width="31" height="26" viewBox="0 0 31 26" fill="none" xmlns="http://www.w3.org/2000/svg">
<path d="M30.1221 3.69489C29.0188 4.17063 27.8183 4.51303 26.5816 4.64638C27.8655 3.88388 28.827 2.67925 29.2856 1.25852C28.0808 1.97497 26.761 2.47737 25.3847 2.74341C24.8094 2.12864 24.1137 1.63889 23.3408 1.30468C22.5679 0.97046 21.7345 0.798937 20.8924 0.800796C17.4854 0.800796 14.7453 3.56154 14.7453 6.9494C14.7453 7.42514 14.803 7.90088 14.8967 8.35861C9.79519 8.0919 5.24525 5.65553 2.22038 1.92528C1.66921 2.86636 1.38038 3.9379 1.38394 5.02841C1.38394 7.16204 2.46914 9.04339 4.12399 10.1498C3.14877 10.1115 2.19637 9.84349 1.34428 9.36775V9.44344C1.34428 12.4312 3.45701 14.9073 6.27277 15.4767C5.74408 15.614 5.20021 15.6842 4.65398 15.6858C4.25379 15.6858 3.87522 15.6461 3.49306 15.592C4.27181 18.0284 6.53957 19.798 9.23996 19.8557C7.12724 21.51 4.48092 22.4831 1.60747 22.4831C1.09191 22.4831 0.616001 22.4651 0.12207 22.4074C2.8477 24.1554 6.08169 25.1645 9.56444 25.1645C20.8708 25.1645 27.0575 15.8011 27.0575 7.67383C27.0575 7.40712 27.0575 7.14042 27.0395 6.87371C28.2365 5.99792 29.2856 4.91308 30.1221 3.69489Z" fill="#000E39"/>
</svg>
