<svg width="29" height="30" viewBox="0 0 29 30" fill="none" xmlns="http://www.w3.org/2000/svg">
<path d="M3.44225 7.66602C5.31961 7.66602 6.84152 6.14448 6.84152 4.26758C6.84152 2.39067 5.31961 0.869141 3.44225 0.869141C1.56488 0.869141 0.0429688 2.39067 0.0429688 4.26758C0.0429688 6.14448 1.56488 7.66602 3.44225 7.66602Z" fill="#000E39"/>
<path d="M10.051 10.2413V29.0941H15.9065V19.771C15.9065 17.3109 16.3695 14.9285 19.4208 14.9285C22.4301 14.9285 22.4674 17.7411 22.4674 19.9263V29.0957H28.326V18.7569C28.326 13.6783 27.2323 9.77539 21.2944 9.77539C18.4435 9.77539 16.5326 11.3393 15.7512 12.8194H15.6719V10.2413H10.051ZM0.508789 10.2413H6.37363V29.0941H0.508789V10.2413Z" fill="#000E39"/>
</svg>
