<svg width="31" height="32" viewBox="0 0 31 32" fill="none" xmlns="http://www.w3.org/2000/svg">
<path d="M15.1841 8.27881C13.1402 8.27881 11.18 9.09046 9.73474 10.5352C8.28948 11.98 7.47754 13.9395 7.47754 15.9827C7.47754 18.0259 8.28948 19.9854 9.73474 21.4301C11.18 22.8749 13.1402 23.6865 15.1841 23.6865C17.228 23.6865 19.1882 22.8749 20.6335 21.4301C22.0787 19.9854 22.8907 18.0259 22.8907 15.9827C22.8907 13.9395 22.0787 11.98 20.6335 10.5352C19.1882 9.09046 17.228 8.27881 15.1841 8.27881ZM15.1841 20.9858C13.8563 20.9858 12.5828 20.4585 11.6439 19.52C10.705 18.5814 10.1775 17.3084 10.1775 15.981C10.1775 14.6536 10.705 13.3806 11.6439 12.442C12.5828 11.5035 13.8563 10.9762 15.1841 10.9762C16.5119 10.9762 17.7854 11.5035 18.7243 12.442C19.6632 13.3806 20.1907 14.6536 20.1907 15.981C20.1907 17.3084 19.6632 18.5814 18.7243 19.52C17.7854 20.4585 16.5119 20.9858 15.1841 20.9858Z" fill="#000E39"/>
<path d="M22.8904 8.86038C23.8827 8.86038 24.687 8.05599 24.687 7.06373C24.687 6.07147 23.8827 5.26709 22.8904 5.26709C21.8981 5.26709 21.0938 6.07147 21.0938 7.06373C21.0938 8.05599 21.8981 8.86038 22.8904 8.86038Z" fill="#000E39"/>
<path d="M29.4064 6.13251C29.0206 5.13647 28.431 4.23193 27.6753 3.4768C26.9197 2.72167 26.0147 2.13259 25.0182 1.74726C23.8521 1.30967 22.6201 1.07305 21.3749 1.04749C19.7699 0.977513 19.2616 0.95752 15.1916 0.95752C11.1217 0.95752 10.6 0.957519 9.00836 1.04749C7.76403 1.07174 6.53299 1.30841 5.36841 1.74726C4.37165 2.13214 3.46637 2.72107 2.71067 3.47625C1.95496 4.23144 1.36551 5.13621 0.980133 6.13251C0.542313 7.29816 0.306166 8.5298 0.281809 9.77467C0.210143 11.3775 0.188477 11.8857 0.188477 15.956C0.188477 20.0247 0.188477 20.5429 0.281809 22.1373C0.306808 23.3836 0.541805 24.6132 0.980133 25.7812C1.36659 26.7771 1.95661 27.6815 2.7125 28.4366C3.46839 29.1917 4.37353 29.7808 5.37008 30.1664C6.53245 30.6216 7.764 30.8752 9.01169 30.9162C10.6167 30.9862 11.125 31.0078 15.1949 31.0078C19.2649 31.0078 19.7866 31.0078 21.3782 30.9162C22.6234 30.8909 23.8552 30.6548 25.0215 30.2181C26.0177 29.8318 26.9225 29.2422 27.6781 28.4869C28.4336 27.7316 29.0234 26.8271 29.4098 25.8312C29.8481 24.6649 30.0831 23.4353 30.1081 22.189C30.1797 20.5862 30.2014 20.078 30.2014 16.0077C30.2014 11.9373 30.2014 11.4208 30.1081 9.82632C30.0887 8.56385 29.8513 7.31421 29.4064 6.13251ZM27.3765 22.0141C27.3657 22.9742 27.1904 23.9255 26.8581 24.8265C26.6078 25.4744 26.2247 26.0627 25.7333 26.5537C25.2418 27.0447 24.6531 27.4274 24.0048 27.6772C23.1136 28.0079 22.1721 28.1831 21.2215 28.1954C19.6382 28.2687 19.1916 28.287 15.1316 28.287C11.0683 28.287 10.6533 28.287 9.04003 28.1954C8.08992 28.1838 7.14893 28.0085 6.2584 27.6772C5.60788 27.4289 5.01675 27.0469 4.52324 26.5559C4.02972 26.0648 3.64482 25.4756 3.39343 24.8265C3.06585 23.9352 2.89063 22.9951 2.87511 22.0457C2.80344 20.4629 2.78678 20.0164 2.78678 15.9577C2.78678 11.8973 2.78678 11.4825 2.87511 9.86797C2.88588 8.90832 3.0612 7.95762 3.39343 7.05722C3.90176 5.74264 4.94341 4.70797 6.2584 4.2048C7.14937 3.87514 8.09008 3.69991 9.04003 3.68664C10.625 3.61499 11.07 3.595 15.1316 3.595C19.1932 3.595 19.6099 3.595 21.2215 3.68664C22.1722 3.69807 23.1138 3.87336 24.0048 4.2048C24.653 4.45518 25.2417 4.83827 25.7331 5.32949C26.2245 5.82071 26.6077 6.40921 26.8581 7.05722C27.1857 7.94851 27.3609 8.88856 27.3765 9.83798C27.4481 11.4225 27.4664 11.8673 27.4664 15.9277C27.4664 19.9864 27.4665 20.4229 27.3948 22.0157H27.3765V22.0141Z" fill="#000E39"/>
</svg>
