<svg width="54" height="54" viewBox="0 0 54 54" fill="none" xmlns="http://www.w3.org/2000/svg">
<path d="M2.69547 53.9095H7.18792C7.94855 53.9086 8.67225 53.5815 9.17538 53.011H31.7167C33.0352 53.0117 34.3284 52.6492 35.4544 51.9634L52.2921 41.7134C53.7585 40.8265 54.3237 38.9789 53.6046 37.4233C52.8854 35.8678 51.1118 35.1015 49.4861 35.6441C30.5352 41.9344 32.9413 41.3306 31.2028 41.3306C32.2603 38.3557 29.6124 35.0412 26.209 35.0412H21.5728C19.939 35.037 18.356 34.4732 17.0875 33.4437C14.3974 31.2738 11.914 31.4472 9.71807 31.4472C9.33868 30.3741 8.32612 29.655 7.18792 29.6503H2.69547C1.2068 29.6503 0 30.8571 0 32.3457V51.214C0 52.7027 1.2068 53.9095 2.69547 53.9095ZM15.9572 34.8408C17.5458 36.1289 19.5276 36.8338 21.5728 36.8382H26.209C28.5756 36.8382 30.5756 39.4276 29.1875 41.3306H24.0077C22.234 41.3317 20.5002 41.8565 19.0237 42.8392L18.3669 43.2795C18.0379 43.4997 17.8919 43.9093 18.0073 44.288C18.1227 44.6667 18.4724 44.9253 18.8683 44.9246C19.2133 44.9246 19.3355 44.7907 20.0193 44.3343C21.1999 43.546 22.588 43.126 24.0077 43.1276H31.9952C33.0105 43.1276 32.0024 43.3567 50.0486 37.3503C50.8046 37.1018 51.6268 37.4591 51.961 38.1813C52.2953 38.9035 52.0355 39.7615 51.3568 40.177L34.5191 50.4288C33.6748 50.9428 32.7052 51.2145 31.7167 51.214H9.88339V33.2442H11.4647C13.1003 33.2498 14.685 33.813 15.9572 34.8408ZM1.79698 32.3457C1.79698 31.8495 2.19925 31.4472 2.69547 31.4472H7.18792C7.68414 31.4472 8.08641 31.8495 8.08641 32.3457V51.214C8.08641 51.7103 7.68414 52.1125 7.18792 52.1125H2.69547C2.19925 52.1125 1.79698 51.7103 1.79698 51.214V32.3457Z" fill="#DFB66C"/>
<path d="M35.5538 0.0108898C30.0602 -0.214385 25.0568 3.15447 23.1992 8.32944C21.3416 13.5044 23.0603 19.2862 27.4432 22.6061C29.1925 23.8951 30.3084 25.8695 30.5106 28.033C29.45 28.4244 28.7487 29.4387 28.7571 30.5692C28.7656 31.6997 29.482 32.7035 30.5483 33.0789C30.5483 35.56 32.5597 37.5714 35.0408 37.5714C37.5219 37.5714 39.5332 35.56 39.5332 33.0789C40.6006 32.7038 41.318 31.6993 41.3264 30.5679C41.3349 29.4365 40.6327 28.4214 39.571 28.0303C39.7902 25.8545 40.9186 23.8726 42.678 22.5738C46.8883 19.3562 48.6307 13.845 47.0352 8.79185C45.4397 3.73868 40.8485 0.227321 35.5538 0.0108898ZM35.0408 35.9397C33.5521 35.9397 32.3453 34.7329 32.3453 33.2442H37.7363C37.7363 34.7329 36.5295 35.9397 35.0408 35.9397ZM38.6347 31.4473H31.4468C30.9506 31.4473 30.5483 31.045 30.5483 30.5488C30.5483 30.0526 30.9506 29.6503 31.4468 29.6503H38.6347C39.131 29.6503 39.5332 30.0526 39.5332 30.5488C39.5332 31.045 39.131 31.4473 38.6347 31.4473ZM41.589 21.1461C39.4289 22.7445 38.0431 25.1798 37.7722 27.8533H32.3103C32.0558 25.1909 30.6811 22.7624 28.5294 21.1739C24.7722 18.3284 23.2987 13.3721 24.8911 8.93605C26.4835 4.50001 30.7727 1.61241 35.4819 1.80607C40.021 1.99008 43.9578 4.99942 45.3263 9.3312C46.6947 13.663 45.2013 18.3878 41.5917 21.1461H41.589Z" fill="#DFB66C"/>
<path d="M53.0112 11.6804H50.3157C49.8195 11.6804 49.4172 12.0827 49.4172 12.5789C49.4172 13.0751 49.8195 13.4774 50.3157 13.4774H53.0112C53.5074 13.4774 53.9097 13.0751 53.9097 12.5789C53.9097 12.0827 53.5074 11.6804 53.0112 11.6804Z" fill="#DFB66C"/>
<path d="M50.1356 0.359449C49.8379 -0.037529 49.2747 -0.117983 48.8777 0.179751L46.7213 1.79703C46.4119 2.02908 46.2857 2.43306 46.408 2.79995C46.5303 3.16684 46.8737 3.41432 47.2604 3.41432C47.6567 3.41432 47.6036 3.38017 49.9559 1.61734C50.1465 1.47436 50.2726 1.26151 50.3063 1.02561C50.34 0.789709 50.2786 0.550084 50.1356 0.359449Z" fill="#DFB66C"/>
<path d="M46.5416 22.1029C46.2439 22.4999 46.3243 23.0631 46.7213 23.3608L48.8777 24.9781C49.2747 25.2758 49.8379 25.1954 50.1356 24.7984C50.4333 24.4014 50.3529 23.8382 49.9559 23.5405L47.7995 21.9232C47.6089 21.7803 47.3693 21.7189 47.1334 21.7526C46.8975 21.7863 46.6846 21.9123 46.5416 22.1029Z" fill="#DFB66C"/>
<path d="M17.0712 11.6804C16.5749 11.6804 16.1727 12.0827 16.1727 12.5789C16.1727 13.0751 16.5749 13.4774 17.0712 13.4774H19.7666C20.2629 13.4774 20.6651 13.0751 20.6651 12.5789C20.6651 12.0827 20.2629 11.6804 19.7666 11.6804H17.0712Z" fill="#DFB66C"/>
<path d="M21.2041 0.179751C20.8071 -0.117983 20.244 -0.037529 19.9462 0.359449C19.6485 0.756427 19.7289 1.3196 20.1259 1.61734C22.4764 3.37927 22.4243 3.41432 22.8214 3.41432C23.2081 3.41432 23.5515 3.16684 23.6738 2.79995C23.7961 2.43306 23.6699 2.02908 23.3605 1.79703L21.2041 0.179751Z" fill="#DFB66C"/>
<path d="M22.2823 21.9232L20.1259 23.5404C19.7289 23.8382 19.6485 24.4014 19.9462 24.7983C20.244 25.1953 20.8071 25.2758 21.2041 24.978L23.3605 23.3607C23.7575 23.063 23.8379 22.4998 23.5402 22.1029C23.2425 21.7059 22.6793 21.6254 22.2823 21.9232Z" fill="#DFB66C"/>
<path d="M35.0414 23.3608C35.5376 23.3608 35.9399 22.9586 35.9399 22.4623C35.9399 21.9661 35.5376 21.5638 35.0414 21.5638C34.5452 21.5638 34.1429 21.9661 34.1429 22.4623C34.1429 22.9586 34.5452 23.3608 35.0414 23.3608Z" fill="#DFB66C"/>
<path d="M36.3844 5.5311C34.5239 5.12678 32.5804 5.58615 31.0977 6.78064C29.6151 7.97513 28.7526 9.77642 28.7518 11.6804C28.7518 12.1766 29.154 12.5789 29.6503 12.5789C30.1465 12.5789 30.5488 12.1766 30.5488 11.6804C30.5491 9.28307 32.4317 7.3084 34.8262 7.19367C37.2208 7.07895 39.2835 8.86459 39.513 11.2509C39.7425 13.6372 38.0579 15.7832 35.6854 16.127C34.8037 16.2553 34.1481 17.0087 34.1427 17.8997V18.8683C34.1427 19.3645 34.545 19.7668 35.0412 19.7668C35.5374 19.7668 35.9397 19.3645 35.9397 18.8683V17.906C38.9565 17.4783 41.2329 14.9497 41.3423 11.9047C41.4517 8.85973 39.3628 6.17423 36.3844 5.5311Z" fill="#DFB66C"/>
</svg>
