<svg width="15" height="14" viewBox="0 0 15 14" fill="none" xmlns="http://www.w3.org/2000/svg">
<path d="M14.25 1.75H11.5V0H10.5V1.75H4.5V0H3.5V1.75H0.75C0.551159 1.75023 0.360528 1.82932 0.219926 1.96993C0.0793236 2.11053 0.000231576 2.30116 0 2.5V13C0.000231576 13.1988 0.0793236 13.3895 0.219926 13.5301C0.360528 13.6707 0.551159 13.7498 0.75 13.75H14.25C14.4488 13.7498 14.6395 13.6707 14.7801 13.5301C14.9207 13.3895 14.9998 13.1988 15 13V2.5C14.9998 2.30116 14.9207 2.11053 14.7801 1.96993C14.6395 1.82932 14.4488 1.75023 14.25 1.75ZM14 12.75H1V2.75H3.5V4H4.5V2.75H10.5V4H11.5V2.75H14V12.75Z" fill="#000E39"/>
<path d="M3 5.75H4V6.75H3V5.75Z" fill="#000E39"/>
<path d="M5.75 5.75H6.75V6.75H5.75V5.75Z" fill="#000E39"/>
<path d="M8.25 5.75H9.25V6.75H8.25V5.75Z" fill="#000E39"/>
<path d="M11 5.75H12V6.75H11V5.75Z" fill="#000E39"/>
<path d="M3 8H4V9H3V8Z" fill="#000E39"/>
<path d="M5.75 8H6.75V9H5.75V8Z" fill="#000E39"/>
<path d="M8.25 8H9.25V9H8.25V8Z" fill="#000E39"/>
<path d="M11 8H12V9H11V8Z" fill="#000E39"/>
<path d="M3 10.25H4V11.25H3V10.25Z" fill="#000E39"/>
<path d="M5.75 10.25H6.75V11.25H5.75V10.25Z" fill="#000E39"/>
<path d="M8.25 10.25H9.25V11.25H8.25V10.25Z" fill="#000E39"/>
<path d="M11 10.25H12V11.25H11V10.25Z" fill="#000E39"/>
</svg>
