<svg width="31" height="32" viewBox="0 0 31 32" fill="none" xmlns="http://www.w3.org/2000/svg">
<path d="M15.1851 8.27881C13.1412 8.27881 11.181 9.09046 9.73572 10.5352C8.29046 11.98 7.47852 13.9395 7.47852 15.9827C7.47852 18.0259 8.29046 19.9854 9.73572 21.4301C11.181 22.8749 13.1412 23.6865 15.1851 23.6865C17.229 23.6865 19.1892 22.8749 20.6345 21.4301C22.0797 19.9854 22.8917 18.0259 22.8917 15.9827C22.8917 13.9395 22.0797 11.98 20.6345 10.5352C19.1892 9.09046 17.229 8.27881 15.1851 8.27881V8.27881ZM15.1851 20.9858C13.8573 20.9858 12.5838 20.4585 11.6449 19.52C10.706 18.5814 10.1785 17.3084 10.1785 15.981C10.1785 14.6536 10.706 13.3806 11.6449 12.442C12.5838 11.5035 13.8573 10.9762 15.1851 10.9762C16.5129 10.9762 17.7864 11.5035 18.7253 12.442C19.6642 13.3806 20.1917 14.6536 20.1917 15.981C20.1917 17.3084 19.6642 18.5814 18.7253 19.52C17.7864 20.4585 16.5129 20.9858 15.1851 20.9858V20.9858Z" fill="white"/>
<path d="M22.8904 8.86038C23.8827 8.86038 24.687 8.05599 24.687 7.06373C24.687 6.07147 23.8827 5.26709 22.8904 5.26709C21.8981 5.26709 21.0938 6.07147 21.0938 7.06373C21.0938 8.05599 21.8981 8.86038 22.8904 8.86038Z" fill="white"/>
<path d="M29.4074 6.13251C29.0216 5.13647 28.432 4.23193 27.6763 3.4768C26.9207 2.72167 26.0156 2.13259 25.0191 1.74726C23.853 1.30967 22.6211 1.07305 21.3758 1.04749C19.7709 0.977513 19.2625 0.95752 15.1926 0.95752C11.1226 0.95752 10.601 0.957519 9.00934 1.04749C7.765 1.07174 6.53396 1.30841 5.36939 1.74726C4.37263 2.13214 3.46735 2.72107 2.71164 3.47625C1.95594 4.23144 1.36649 5.13621 0.981109 6.13251C0.54329 7.29816 0.307142 8.5298 0.282785 9.77467C0.211119 11.3775 0.189453 11.8857 0.189453 15.956C0.189453 20.0247 0.189453 20.5429 0.282785 22.1373C0.307785 23.3836 0.542782 24.6132 0.981109 25.7812C1.36757 26.7771 1.95759 27.6815 2.71348 28.4366C3.46937 29.1917 4.3745 29.7808 5.37105 30.1664C6.53343 30.6216 7.76497 30.8752 9.01267 30.9162C10.6176 30.9862 11.126 31.0078 15.1959 31.0078C19.2659 31.0078 19.7875 31.0078 21.3792 30.9162C22.6243 30.8909 23.8562 30.6548 25.0225 30.2181C26.0187 29.8318 26.9235 29.2422 27.679 28.4869C28.4346 27.7316 29.0244 26.8271 29.4107 25.8312C29.8491 24.6649 30.0841 23.4353 30.1091 22.189C30.1807 20.5862 30.2024 20.078 30.2024 16.0077C30.2024 11.9373 30.2024 11.4208 30.1091 9.82632C30.0897 8.56385 29.8523 7.31421 29.4074 6.13251V6.13251ZM27.3774 22.0141C27.3667 22.9742 27.1914 23.9255 26.8591 24.8265C26.6088 25.4744 26.2256 26.0627 25.7342 26.5537C25.2428 27.0447 24.6541 27.4274 24.0058 27.6772C23.1145 28.0079 22.1731 28.1831 21.2225 28.1954C19.6392 28.2687 19.1925 28.287 15.1326 28.287C11.0693 28.287 10.6543 28.287 9.041 28.1954C8.0909 28.1838 7.1499 28.0085 6.25937 27.6772C5.60886 27.4289 5.01773 27.0469 4.52421 26.5559C4.0307 26.0648 3.6458 25.4756 3.39441 24.8265C3.06683 23.9352 2.8916 22.9951 2.87608 22.0457C2.80442 20.4629 2.78775 20.0164 2.78775 15.9577C2.78775 11.8973 2.78775 11.4825 2.87608 9.86797C2.88686 8.90832 3.06217 7.95762 3.39441 7.05722C3.90274 5.74264 4.94439 4.70797 6.25937 4.2048C7.15034 3.87514 8.09106 3.69991 9.041 3.68664C10.626 3.61499 11.071 3.595 15.1326 3.595C19.1942 3.595 19.6109 3.595 21.2225 3.68664C22.1732 3.69807 23.1148 3.87336 24.0058 4.2048C24.654 4.45518 25.2427 4.83827 25.7341 5.32949C26.2254 5.82071 26.6086 6.40921 26.8591 7.05722C27.1867 7.94851 27.3619 8.88856 27.3774 9.83798C27.4491 11.4225 27.4674 11.8673 27.4674 15.9277C27.4674 19.9864 27.4674 20.4229 27.3958 22.0157H27.3774V22.0141Z" fill="white"/>
</svg>
