<svg width="106" height="106" viewBox="0 0 106 106" fill="none" xmlns="http://www.w3.org/2000/svg">
<path d="M65.8438 23.8633H48.6114C47.9706 23.8633 47.4463 24.3876 47.4463 25.0284C47.4463 25.6692 47.959 26.1936 48.6114 26.1936H65.8438C66.4847 26.1936 67.009 25.6692 67.009 25.0284C67.009 24.3876 66.4847 23.8633 65.8438 23.8633Z" fill="white"/>
<path fill-rule="evenodd" clip-rule="evenodd" d="M52.9516 102.957C80.5089 102.957 102.849 80.6178 102.849 53.0605C102.849 25.5032 80.5089 3.16357 52.9516 3.16357C25.3943 3.16357 3.05469 25.5032 3.05469 53.0605C3.05469 80.6178 25.3943 102.957 52.9516 102.957ZM52.9516 105.957C82.1658 105.957 105.849 82.2747 105.849 53.0605C105.849 23.8463 82.1658 0.163574 52.9516 0.163574C23.7375 0.163574 0.0546875 23.8463 0.0546875 53.0605C0.0546875 82.2747 23.7375 105.957 52.9516 105.957Z" fill="white"/>
<path d="M79.8483 58.2C79.8134 58.1417 79.7784 58.0952 79.7434 58.0486C78.2404 56.1966 75.5256 55.917 73.6731 57.4196C71.3428 59.3182 67.9522 62.0554 65.7618 63.8258C64.2121 65.0721 62.3013 65.7826 60.3206 65.8525L54.3667 66.0505C54.122 66.0622 53.9007 65.934 53.7841 65.736L53.12 64.6062C53.0035 64.4198 52.9918 64.1985 53.0851 64.0005C53.1666 63.8025 53.353 63.6627 53.5628 63.6278L59.7147 62.463C61.8819 62.0554 63.3965 60.0054 63.1402 57.7923C62.9072 55.6608 61.0896 54.0418 58.9457 54.0418C58.8875 54.0418 58.8175 54.0418 58.736 54.0418L50.5101 53.704C47.2244 53.5875 44.4164 54.2165 41.1191 55.8122L36.8081 57.8738C36.2138 56.6042 34.9555 55.7889 33.5573 55.7773H28.7919C26.8112 55.7773 25.145 57.4312 25.145 59.4113V77.1275C25.145 79.1076 26.8112 80.7033 28.7919 80.7033H33.5573C35.5264 80.715 37.1343 79.1192 37.146 77.1391V77.1275V75.9278L41.725 75.0891C43.2047 74.8678 44.1368 74.7863 45.7097 74.8445L58.2233 75.4269C58.4913 75.4386 58.7476 75.4386 59.0156 75.4386C63.2451 75.4386 67.3464 73.9593 70.6088 71.2454L79.2774 64.0588L79.289 64.0471C81.0018 62.5795 81.2581 59.9937 79.8483 58.2ZM34.7924 77.1042C34.7924 77.803 34.2215 78.3738 33.5224 78.3738H28.7103C28.0113 78.3738 27.4403 77.803 27.4403 77.1042V59.3764C27.4403 58.6775 28.0113 58.1068 28.7103 58.1068H33.5224C34.2215 58.1068 34.7924 58.6775 34.7924 59.3764V77.1042ZM77.7511 62.2883L69.0941 69.4749C66.0764 71.9908 62.2314 73.2837 58.3049 73.109L45.7913 72.5266C44.0319 72.4567 42.96 72.5499 41.3521 72.7945C41.3405 72.7945 41.3172 72.7945 41.3055 72.8062L37.1227 73.5749V60.3082L42.1094 57.8971C45.0456 56.4761 47.5273 55.917 50.3936 56.0219L58.6777 56.3596C58.7243 56.3596 58.7826 56.3596 58.8292 56.3596C58.8408 56.3596 58.8875 56.3596 58.9224 56.3596C59.8778 56.3713 60.6818 57.0818 60.7983 58.0369C60.9148 59.0386 60.2507 59.9704 59.2603 60.1684L53.0967 61.3332C51.4772 61.636 50.4169 63.2085 50.7198 64.8275C50.7897 65.1653 50.9062 65.4914 51.081 65.7826L51.7451 66.9124C52.3044 67.8559 53.3297 68.415 54.425 68.3801L60.3788 68.182C62.8722 68.0889 65.2608 67.2036 67.2065 65.6429C69.4087 63.8724 72.7992 61.1235 75.1295 59.225C75.9684 58.5727 77.1685 58.6775 77.8792 59.4696C77.9025 59.5162 77.9375 59.5628 77.9724 59.6093C78.6599 60.4014 78.555 61.6128 77.7511 62.2883Z" fill="white"/>
<path d="M70.7602 30.9678H43.5659C41.7483 30.9678 40.2686 32.447 40.2686 34.2641V48.6375C40.2686 50.4546 41.7483 51.9338 43.5659 51.9338H70.7602C72.5779 51.9338 74.0576 50.4546 74.0576 48.6375V34.2641C74.0576 32.447 72.5779 30.9678 70.7602 30.9678ZM42.5988 34.2641C42.5988 33.7283 43.0882 33.2973 43.6242 33.2973H46.6768V33.4837C46.6768 35.4638 45.034 37.0246 43.0532 37.0246H42.5988V34.2641ZM46.6768 49.6043H43.6242C43.0765 49.5926 42.6221 49.15 42.5988 48.6026V45.7605H43.0532C45.034 45.7605 46.6768 47.4261 46.6768 49.4063V49.6043ZM71.8438 48.6026C71.8205 49.15 71.3778 49.5926 70.8185 49.6043H67.7658V49.4063C67.7658 47.4261 69.4203 45.7605 71.4011 45.7605H71.8438V48.6026ZM71.8438 43.4309H71.4011C68.1387 43.4309 65.4356 46.1449 65.4356 49.4063V49.6043H49.0071V49.4063C49.0071 46.1449 46.3156 43.4309 43.0532 43.4309H42.5988V39.3542H43.0532C46.3156 39.3542 49.0071 36.7567 49.0071 33.4837V33.2973H65.4356V33.4488C65.4356 36.7101 68.1387 39.3542 71.4011 39.3542H71.8438V43.4309ZM71.8438 37.0246H71.4011C69.4203 37.0246 67.7658 35.4289 67.7658 33.4488V33.2973H70.8185C71.3545 33.2973 71.8438 33.7283 71.8438 34.2641V37.0246Z" fill="white"/>
<path d="M57.2328 33.3906C52.7936 33.3906 49.1816 36.9898 49.1816 41.4275C49.1816 45.8653 52.7819 49.4644 57.2211 49.4761C61.6603 49.4761 65.2722 45.8769 65.2722 41.4392C65.2722 37.0014 61.6719 33.3906 57.2328 33.3906ZM57.2328 47.1465C54.0752 47.1465 51.5119 44.5957 51.5119 41.4275C51.5119 38.271 54.0752 35.7202 57.2211 35.7202C60.3786 35.7202 62.9419 38.271 62.9419 41.4275C62.9419 44.584 60.3903 47.1465 57.2328 47.1465Z" fill="white"/>
<path d="M69.3975 27.3572H45.0577C44.4169 27.3572 43.8926 27.8815 43.8926 28.5223C43.8926 29.1631 44.4052 29.6875 45.0577 29.6875H69.3975C70.0383 29.6875 70.5626 29.1631 70.5626 28.5223C70.5626 27.8815 70.0383 27.3572 69.3975 27.3572Z" fill="white"/>
<circle cx="13" cy="90.8589" r="12" fill="#DFB66C"/>
</svg>
