<svg width="108" height="106" viewBox="0 0 108 106" fill="none" xmlns="http://www.w3.org/2000/svg">
<path fill-rule="evenodd" clip-rule="evenodd" d="M54.9521 102.957C82.5094 102.957 104.849 80.6178 104.849 53.0605C104.849 25.5032 82.5094 3.16357 54.9521 3.16357C27.3948 3.16357 5.05518 25.5032 5.05518 53.0605C5.05518 80.6178 27.3948 102.957 54.9521 102.957ZM54.9521 105.957C84.1663 105.957 107.849 82.2747 107.849 53.0605C107.849 23.8463 84.1663 0.163574 54.9521 0.163574C25.7379 0.163574 2.05518 23.8463 2.05518 53.0605C2.05518 82.2747 25.7379 105.957 54.9521 105.957Z" fill="white"/>
<path d="M81.8482 56.9567C81.7667 56.9101 81.7318 56.8636 81.6969 56.817C80.1949 54.978 77.4819 54.687 75.6306 56.1885C73.3019 58.0858 69.9136 60.8211 67.7246 62.5903C66.1761 63.8358 64.2665 64.5574 62.2871 64.6156L56.3489 64.8135C56.1044 64.8251 55.8715 64.6971 55.7551 64.4876L55.0914 63.3585C54.975 63.1723 54.9633 62.9511 55.0565 62.7533C55.138 62.5554 55.3243 62.4157 55.5339 62.3808L61.6817 61.2285C63.859 60.8327 65.361 58.7841 65.1165 56.5493C64.872 54.4193 63.0672 52.8013 60.9248 52.813C60.8666 52.813 60.7967 52.813 60.7152 52.813L52.4949 52.4871C49.2114 52.359 46.4054 52.9876 43.1102 54.5822L38.8138 56.6774C38.22 55.4203 36.9508 54.6171 35.5536 54.6171H30.7914C28.812 54.6171 27.147 56.1885 27.147 58.1672V75.8712C27.1703 77.8732 28.7887 79.4911 30.7914 79.5144H35.5536C37.533 79.5144 39.1398 77.8499 39.1398 75.8712V74.6723L43.7157 73.8342C45.1944 73.6131 46.1259 73.5316 47.6978 73.6014L60.2029 74.1834C60.4707 74.1951 60.7269 74.1951 60.9947 74.1951C65.2213 74.1951 69.3198 72.7168 72.58 70.0164L81.2428 62.8347L81.2661 62.8231C83.0009 61.3449 83.2571 58.7492 81.8482 56.9567ZM36.7762 75.9294C36.7762 76.6278 36.2056 77.1981 35.507 77.1981H30.6982C29.9996 77.1981 29.4291 76.6278 29.4291 75.9294V58.2138C29.4291 57.5154 29.9996 56.9451 30.6982 56.9451H35.507C36.2056 56.9451 36.7762 57.5154 36.7762 58.2138V75.9294ZM79.7058 61.0655L71.0547 68.2356C68.039 70.7381 64.1967 72.0417 60.2728 71.8671L47.7677 71.2852C46.0095 71.2037 44.9383 71.3084 43.3198 71.5412C43.3082 71.5412 43.2849 71.5412 43.2733 71.5529L39.0932 72.3211V59.0751L44.0767 56.6657C47.0108 55.2457 49.4909 54.687 52.3668 54.7917L60.6454 55.1293C60.692 55.1293 60.7502 55.1293 60.7967 55.1293C60.8084 55.1293 60.855 55.1293 60.8899 55.1293C61.8447 55.1409 62.6481 55.8509 62.7645 56.8054C62.8926 57.8064 62.2173 58.7376 61.2276 58.9355L55.0681 60.0994C53.4497 60.4021 52.3901 61.9734 52.6929 63.5913C52.7627 63.9289 52.8792 64.2548 53.0538 64.5458L53.7175 65.6748C54.2764 66.6176 55.301 67.1763 56.3955 67.1414L62.3453 66.9436C64.8371 66.8621 67.2356 65.9775 69.1684 64.4061C71.3691 62.6369 74.7573 59.8899 77.086 58.0043C77.9244 57.3525 79.1237 57.4572 79.8339 58.2487C79.8572 58.2953 79.8921 58.3418 79.9271 58.3884C80.614 59.1682 80.5092 60.3788 79.7058 61.0655Z" fill="white"/>
<path d="M76.8418 30.0573H75.5494V28.5442C75.5494 26.6469 74.059 25.0522 72.1611 25.0522H45.1831C43.2852 25.0522 41.7832 26.6469 41.7832 28.5442V42.6632C41.7832 44.5604 43.2852 46.1202 45.1831 46.1202H46.4406V47.6333C46.4406 49.5306 47.9659 51.1252 49.8638 51.1252H76.8418C78.7397 51.1252 80.3232 49.5306 80.3232 47.6333V33.5143C80.3 31.6054 78.7514 30.069 76.8418 30.0573ZM45.218 43.6758C44.6126 43.6758 44.1119 43.1753 44.1119 42.57V28.486C44.1119 27.8807 44.6126 27.3802 45.218 27.3802H72.231C72.8365 27.3802 73.3371 27.8807 73.3371 28.486V42.57C73.3371 43.1753 72.8365 43.6758 72.231 43.6758H45.218ZM77.9945 47.6333C77.9829 48.2619 77.4706 48.774 76.8418 48.7973H49.8638C49.2583 48.7973 48.7693 48.2386 48.7693 47.6333V46.1202H72.1611C74.059 46.1202 75.5494 44.5604 75.5494 42.6632V32.3853H76.8418C77.4706 32.3969 77.9713 32.8858 77.9945 33.5143V47.6333Z" fill="white"/>
<path d="M58.666 28.0437C54.486 28.0437 51.1094 31.4308 51.1094 35.6095C51.1094 39.7764 54.4976 43.1636 58.6776 43.1636C62.8576 43.1636 66.2343 39.7764 66.2343 35.5978C66.2343 31.4192 62.846 28.0437 58.666 28.0437ZM58.666 40.8356C55.7784 40.8356 53.4381 38.4844 53.4381 35.5978C53.4381 32.7112 55.7784 30.3716 58.6776 30.3716C61.5652 30.3716 63.9056 32.7228 63.9056 35.6095C63.9056 38.4961 61.5536 40.8356 58.666 40.8356Z" fill="white"/>
<path d="M47.628 28.0669C46.091 28.0669 44.8335 29.3242 44.8335 30.8608C44.8335 32.4092 46.091 33.6548 47.628 33.6548C49.1766 33.6548 50.4225 32.3975 50.4225 30.8608C50.4225 29.3125 49.165 28.0669 47.628 28.0669ZM47.628 31.3265C47.3718 31.3265 47.1622 31.117 47.1622 30.8608C47.1622 30.6047 47.3602 30.3952 47.628 30.3952C47.8842 30.3952 48.0937 30.6047 48.0937 30.8608C48.0937 31.117 47.8842 31.3265 47.628 31.3265Z" fill="white"/>
<path d="M69.7275 37.4717C68.1789 37.4717 66.9214 38.7172 66.9214 40.2653C66.9214 40.2653 66.9214 40.2653 66.9214 40.2769C66.9214 41.8134 68.1673 43.0706 69.7159 43.0706C71.2645 43.0706 72.522 41.8251 72.522 40.2769C72.522 38.7288 71.2761 37.4717 69.7275 37.4717ZM69.7159 40.7542C69.4481 40.7542 69.2385 40.5447 69.2385 40.2769C69.2501 40.0092 69.4597 39.7997 69.7159 39.7997C69.972 39.7997 70.1932 40.0092 70.1932 40.2769C70.1932 40.533 69.9837 40.7542 69.7159 40.7542Z" fill="white"/>
<circle cx="12.1675" cy="90.8589" r="12" fill="#DFB66C"/>
</svg>
