<svg width="107" height="106" viewBox="0 0 107 106" fill="none" xmlns="http://www.w3.org/2000/svg">
<path fill-rule="evenodd" clip-rule="evenodd" d="M53.9526 102.957C81.5099 102.957 103.85 80.6178 103.85 53.0605C103.85 25.5032 81.5099 3.16357 53.9526 3.16357C26.3953 3.16357 4.05566 25.5032 4.05566 53.0605C4.05566 80.6178 26.3953 102.957 53.9526 102.957ZM53.9526 105.957C83.1668 105.957 106.85 82.2747 106.85 53.0605C106.85 23.8463 83.1668 0.163574 53.9526 0.163574C24.7384 0.163574 1.05566 23.8463 1.05566 53.0605C1.05566 82.2747 24.7384 105.957 53.9526 105.957Z" fill="white"/>
<path d="M80.8485 55.9856C80.8019 55.9391 80.767 55.8925 80.7321 55.8459C79.2297 53.9949 76.5162 53.7154 74.6645 55.2173C72.347 57.1033 68.8532 59.9206 66.7569 61.6087C65.208 62.8544 63.2981 63.5646 61.3183 63.6345L55.3672 63.8324C55.1226 63.844 54.9013 63.7159 54.7849 63.518L54.1211 62.3888C54.0162 62.2025 53.9929 61.9813 54.0861 61.7834C54.1676 61.5855 54.354 61.4458 54.5636 61.4108L60.7127 60.2466C62.8905 59.8508 64.3928 57.8018 64.1482 55.5782C63.9153 53.4477 62.0985 51.8294 59.9557 51.8294C59.8974 51.8294 59.8276 51.8294 59.7461 51.8294L51.524 51.4918C48.2282 51.3754 45.4215 52.0041 42.1374 53.5874L37.8051 55.6713C37.2111 54.4023 35.9534 53.5874 34.5558 53.5757H29.7926C27.8128 53.5757 26.1475 55.2289 26.1475 57.2081V74.9156C26.1475 76.8947 27.8128 78.4897 29.7926 78.4897H34.5558C36.524 78.5013 38.1312 76.9064 38.1428 74.9389V74.9272V73.7281L42.7197 72.8899C44.1987 72.6687 45.1304 72.5872 46.7026 72.6454L59.2103 73.2275C59.4665 73.2391 59.7228 73.2391 59.979 73.2391C64.2181 73.2391 68.3175 71.7606 71.5784 69.048L80.2429 61.8649C80.2546 61.8649 80.2546 61.8532 80.2662 61.8532C82.0015 60.3747 82.2577 57.7785 80.8485 55.9856ZM35.802 74.8923C35.802 75.5908 35.2313 76.1613 34.5326 76.1613H29.7228C29.024 76.1613 28.4534 75.5908 28.4534 74.8923V57.1731C28.4534 56.4746 29.024 55.9041 29.7228 55.9041H34.5326C35.2313 55.9041 35.802 56.4746 35.802 57.1731V74.8923ZM78.7406 60.0953L70.0877 67.2668C67.0714 69.7698 63.2282 71.0737 59.3035 70.8991L46.7957 70.317C45.0372 70.2471 43.9658 70.3403 42.3586 70.5847C42.347 70.5847 42.3237 70.5847 42.3121 70.5964L38.1312 71.3648V58.1045L43.1156 55.6946C46.0388 54.2859 48.5193 53.7154 51.3959 53.8202L59.6762 54.1578C59.7228 54.1578 59.781 54.1578 59.8276 54.1578C59.8392 54.1578 59.8858 54.1578 59.9207 54.1578C60.9805 54.1695 61.8307 55.031 61.819 56.0904C61.8074 56.9985 61.1552 57.7785 60.2585 57.9531L54.1094 59.1173C52.4906 59.42 51.4192 60.9801 51.722 62.5983C51.7802 62.9359 51.9083 63.2619 52.083 63.5646L52.7468 64.7055C53.3058 65.6485 54.3307 66.2073 55.4254 66.1608L61.3765 65.9629C63.8687 65.8814 66.2678 64.9849 68.201 63.4249C70.2973 61.7368 73.8027 58.9078 76.1203 57.0218C76.9588 56.3698 78.1583 56.4746 78.8687 57.2546C78.892 57.3012 78.9269 57.3478 78.9619 57.3943C79.649 58.1976 79.5442 59.4084 78.7406 60.0953Z" fill="white"/>
<path d="M78.601 40.9089C78.601 40.839 78.601 40.7692 78.5894 40.6993C78.5894 38.0915 73.7563 37.2067 70.2625 37.067V30.4427C70.3673 30.2215 70.4256 29.9886 70.4139 29.7442C70.4139 28.4868 69.2843 27.5205 67.0482 26.8569C65.3246 26.3563 63.1236 26.0769 60.8293 26.0769C57.3937 26.0769 51.5824 26.8453 51.5824 29.7325C51.5824 29.8256 51.5941 29.9071 51.6057 29.9886L51.6756 32.7478C46.6911 32.1075 42.1143 35.6234 41.4737 40.6062C40.8332 45.589 44.3503 50.1643 49.3347 50.8046C49.7307 50.8628 50.1267 50.8861 50.511 50.8861C52.5257 50.8861 54.4823 50.2225 56.0778 48.9885C57.4636 49.2795 58.8728 49.4309 60.2819 49.4541C61.1554 51.7476 66.2563 52.3879 69.3891 52.3879C72.8363 52.3879 78.6709 51.6196 78.6709 48.7091L78.601 40.9089ZM69.2493 39.3605C73.1624 39.3721 75.5265 40.1987 76.167 40.6877C75.5148 41.1766 73.1624 42.0032 69.2493 42.0032C65.3596 42.0032 63.042 41.165 62.4364 40.676C62.681 40.4898 63.24 40.1871 64.3231 39.9077C65.6624 39.5584 67.386 39.3605 69.1678 39.3605H69.2493ZM60.8526 28.4053C62.6694 28.4053 64.4745 28.6032 65.9069 28.9525C67.0366 29.2319 67.6655 29.5346 67.9566 29.7325C67.1065 30.3379 64.4163 31.0597 60.8526 31.0597C56.9628 31.0597 54.6453 30.2098 54.0397 29.7325C54.6453 29.2552 56.9628 28.4053 60.8526 28.4053ZM60.8293 33.3998C63.2749 33.3998 66.0816 33.0505 67.945 32.3054V33.6908C67.7121 33.8771 67.1181 34.2263 65.8487 34.5407C64.4279 34.8899 62.6461 35.0879 60.8409 35.0879C59.0941 35.0879 57.3937 34.9016 56.0545 34.564C55.4372 34.0866 54.7501 33.6908 54.0281 33.3881L54.0048 32.3403C55.8681 33.0971 58.4885 33.3998 60.8293 33.3998ZM56.9978 43.7961C55.8798 47.3702 52.0832 49.361 48.5079 48.255C44.9326 47.149 42.9411 43.3421 44.0475 39.768C44.9209 36.9389 47.5529 35.0064 50.511 35.0064C51.1864 35.0064 51.8619 35.1111 52.5141 35.3091C54.8782 36.0425 56.66 37.9984 57.1608 40.4199V40.4316C57.254 40.874 57.3006 41.328 57.3006 41.782C57.3006 42.4689 57.1958 43.1442 56.9978 43.7961ZM58.011 46.9627C58.3604 46.4621 58.6515 45.9266 58.8844 45.3678C59.292 45.4027 59.6996 45.4144 60.1073 45.426L60.1422 47.1257C59.3968 47.1024 58.6864 47.0442 58.011 46.9627ZM59.6181 41.3978C59.7695 41.4095 59.9093 41.4095 60.0607 41.4095L60.084 43.0976C59.8976 43.0859 59.7229 43.0859 59.5366 43.0743C59.5948 42.6435 59.6298 42.2128 59.6298 41.782C59.6298 41.654 59.6181 41.5259 59.6181 41.3978ZM60.7245 39.0927C60.2237 39.0927 59.7229 39.0694 59.1989 39.0345C59.0009 38.4291 58.7447 37.847 58.4302 37.2998C59.2105 37.3697 60.0024 37.4046 60.8293 37.4046C62.8324 37.4046 65.8487 37.1369 67.945 36.287V37.0437C66.3145 37.1252 64.719 37.3581 63.438 37.719C62.1919 38.0799 61.2951 38.5339 60.7245 39.0927ZM62.4131 43.2839C64.2881 44.0406 66.9551 44.3433 69.2493 44.3433C71.4504 44.3433 73.57 44.0872 75.212 43.6098C75.5847 43.5051 75.9457 43.377 76.3068 43.2373L76.3184 44.4713C76.3068 44.5063 76.3068 44.5412 76.3068 44.5761C75.9225 45.0302 73.5001 46.0197 69.2493 46.0197C65.3596 46.0197 63.042 45.1815 62.4364 44.6925L62.4131 43.2839ZM69.4007 50.0595C65.2315 50.0595 62.8673 49.0932 62.4947 48.6392L62.4714 47.3236C64.358 48.0687 67.0017 48.3598 69.2493 48.3598C71.3456 48.3598 74.3153 48.0804 76.3417 47.2305L76.3534 48.6159C75.9574 49.0816 73.5933 50.0595 69.4007 50.0595Z" fill="white"/>
<path d="M50.5109 36.5779C47.6227 36.5779 45.2935 38.918 45.2935 41.7937C45.2935 44.6694 47.6343 46.9979 50.5109 47.0095C53.3991 47.0095 55.7283 44.6694 55.7283 41.7937C55.7283 38.918 53.3874 36.5779 50.5109 36.5779ZM50.5109 44.6694C48.9154 44.6694 47.6227 43.3771 47.6227 41.7821C47.6227 40.187 48.9154 38.8947 50.5109 38.8947C52.1064 38.8947 53.3991 40.187 53.3991 41.7821C53.3991 43.3771 52.1064 44.6694 50.5109 44.6694Z" fill="white"/>
<circle cx="12.1113" cy="90.8589" r="12" fill="#DFB66C"/>
</svg>
