<svg width="106" height="106" viewBox="0 0 106 106" fill="none" xmlns="http://www.w3.org/2000/svg">
<path fill-rule="evenodd" clip-rule="evenodd" d="M52.9526 102.957C80.5099 102.957 102.85 80.6178 102.85 53.0605C102.85 25.5032 80.5099 3.16357 52.9526 3.16357C25.3953 3.16357 3.05566 25.5032 3.05566 53.0605C3.05566 80.6178 25.3953 102.957 52.9526 102.957ZM52.9526 105.957C82.1668 105.957 105.85 82.2747 105.85 53.0605C105.85 23.8463 82.1668 0.163574 52.9526 0.163574C23.7384 0.163574 0.0556641 23.8463 0.0556641 53.0605C0.0556641 82.2747 23.7384 105.957 52.9526 105.957Z" fill="white"/>
<path d="M62.2011 23.4229C53.8079 23.4229 46.9746 30.254 46.9746 38.6446C46.9746 47.0351 53.8079 53.8779 62.2011 53.8779C70.5944 53.8779 77.4277 47.0468 77.4277 38.6562C77.4277 30.2656 70.5944 23.4229 62.2011 23.4229ZM62.2128 51.5504C55.0884 51.5504 49.3028 45.7783 49.3028 38.6562C49.3028 38.6562 49.3028 38.6562 49.3028 38.6446C49.3145 31.5341 55.0768 25.762 62.2011 25.7503C69.3255 25.7503 75.1111 31.5225 75.1111 38.6446C75.1111 45.7667 69.3371 51.5504 62.2128 51.5504Z" fill="white"/>
<path d="M66.2871 40.6926C65.8098 38.8191 64.1218 37.4924 62.1894 37.4924C61.1301 37.4924 60.2803 36.6313 60.2919 35.5723C60.3036 34.5133 61.1534 33.6638 62.2127 33.6754C63.2604 33.6754 64.1102 34.5366 64.1102 35.5839C64.1102 36.224 64.6341 36.7476 65.2743 36.7476C65.9029 36.7476 66.4151 36.2356 66.4151 35.5955V35.5839C66.4151 33.6405 65.0997 31.9531 63.2138 31.476V31.0221C63.2138 30.3821 62.69 29.8584 62.0497 29.8584C61.4095 29.8584 60.8856 30.3821 60.8856 31.0221V31.5458C59.2559 32.0927 57.9404 33.6987 57.9404 35.5839C57.9404 37.923 59.8379 39.8199 62.1894 39.8199C63.2488 39.8199 64.0986 40.681 64.0869 41.74C64.0869 42.7757 63.2488 43.6252 62.2011 43.6369C61.1417 43.6369 60.2919 42.7757 60.2919 41.7284C60.2919 41.0883 59.7681 40.5646 59.1278 40.5646C58.4759 40.5646 57.9521 41.0767 57.9404 41.7284C57.9404 43.6252 59.2559 45.2312 60.8856 45.7665V46.8138C60.8856 47.4539 61.4095 47.9775 62.0497 47.9775C62.69 47.9775 63.2138 47.4539 63.2138 46.8138V45.8363C65.4839 45.2661 66.8575 42.9619 66.2871 40.6926Z" fill="white"/>
<path d="M79.8489 58.6141C79.8256 58.5559 79.7907 58.5093 79.7558 58.4628C78.2541 56.6125 75.5417 56.3332 73.6791 57.8344C71.3509 59.7313 67.9634 62.466 65.7632 64.2465C64.2149 65.4917 62.3058 66.2016 60.3152 66.2714L54.3549 66.4692C54.1105 66.4809 53.8893 66.3528 53.7612 66.155L53.0977 65.0146C52.9813 64.8284 52.9697 64.6073 53.0628 64.4094C53.1559 64.2116 53.3305 64.0719 53.5401 64.037L59.6982 62.8733C61.8634 62.466 63.3768 60.4178 63.1323 58.1951C62.8995 56.0539 61.0835 54.4479 58.9415 54.4479C58.8833 54.4479 58.8135 54.4479 58.732 54.4479L50.5017 54.1105C47.219 53.9941 44.4018 54.6225 41.1074 56.2168L36.8002 58.2999C36.1948 57.043 34.926 56.2401 33.529 56.2401H28.7678C26.7772 56.2284 25.1591 57.8344 25.1475 59.8243V77.5479C25.1591 79.5379 26.7772 81.1438 28.7678 81.1438H33.529C35.5197 81.1438 37.1261 79.5379 37.1378 77.5479V76.3492L41.7127 75.5114C43.1911 75.2903 44.1224 75.2088 45.694 75.2786L58.2081 75.8605C62.7132 76.0583 67.1252 74.5688 70.5826 71.6827L79.2552 64.4909L79.2669 64.4792C81.0014 63.0013 81.2575 60.4062 79.8489 58.6141ZM34.8096 77.5479C34.8096 78.2461 34.2391 78.8163 33.5407 78.8163H28.7446C28.0461 78.8163 27.4757 78.2461 27.4757 77.5479V59.836C27.4757 59.1377 28.0461 58.5675 28.7446 58.5675H33.5407C34.2391 58.5675 34.8096 59.1377 34.8096 59.836V77.5479ZM77.7652 62.6987L69.1042 69.8789C66.0891 72.3926 62.236 73.6843 58.3129 73.5214L45.7987 72.9395C44.0409 72.8581 42.97 72.9628 41.3519 73.1956C41.3402 73.1956 41.3286 73.1956 41.3169 73.2072L37.1378 73.9752V60.7088L42.1202 58.2999C45.0537 56.8801 47.5333 56.3215 50.4086 56.4263L58.6971 56.7638C58.7436 56.7638 58.8018 56.7638 58.8484 56.7638C58.86 56.7638 58.9066 56.7638 58.9415 56.7638C59.8961 56.7754 60.711 57.4853 60.8274 58.4395C60.9438 59.4403 60.2686 60.3713 59.2791 60.5691L53.121 61.7329C51.5029 62.0354 50.4435 63.6065 50.7462 65.224C50.8161 65.5615 50.9325 65.8874 51.1071 66.1783L51.7706 67.3071C52.3294 68.2497 53.3538 68.8083 54.4481 68.7734L60.4083 68.5756C62.8995 68.4825 65.2976 67.5864 67.2416 66.0386C69.4418 64.2581 72.841 61.5234 75.1692 59.6265C76.0074 58.9748 77.2064 59.0796 77.9165 59.8709C77.9398 59.9174 77.9747 59.964 78.0096 60.0105C78.6732 60.8135 78.5684 62.0238 77.7652 62.6987Z" fill="white"/>
<circle cx="12.0557" cy="90.8589" r="12" fill="#DFB66C"/>
</svg>
