<svg width="136" height="101" viewBox="0 0 136 101" fill="none" xmlns="http://www.w3.org/2000/svg">
<path d="M36 19.125H4.39453L18.2285 32.959L16.6465 34.541L0.105469 18L16.6465 1.45898L18.2285 3.04102L4.39453 16.875H36V19.125Z" fill="#000E39"/>
<path d="M100 81.875L131.605 81.875L117.771 68.041L119.354 66.459L135.895 83L119.354 99.541L117.771 97.959L131.605 84.125L100 84.125L100 81.875Z" fill="#DFB66C"/>
<path d="M36 84.125H4.39453L18.2285 97.959L16.6465 99.541L0.105469 83L16.6465 66.459L18.2285 68.041L4.39453 81.875H36V84.125Z" fill="#DFB66C"/>
<path d="M100 16.875L131.605 16.875L117.771 3.04101L119.354 1.45898L135.895 18L119.354 34.541L117.771 32.959L131.605 19.125L100 19.125L100 16.875Z" fill="#000E39"/>
</svg>
