<svg width="29" height="29" viewBox="0 0 29 29" fill="none" xmlns="http://www.w3.org/2000/svg">
<path d="M4.09947 6.88428C5.97684 6.88428 7.49875 5.36274 7.49875 3.48584C7.49875 1.60893 5.97684 0.0874023 4.09947 0.0874023C2.2221 0.0874023 0.700195 1.60893 0.700195 3.48584C0.700195 5.36274 2.2221 6.88428 4.09947 6.88428Z" fill="white"/>
<path d="M10.7082 9.45958V28.3124H16.5637V18.9893C16.5637 16.5292 17.0267 14.1468 20.078 14.1468C23.0873 14.1468 23.1246 16.9594 23.1246 19.1446V28.314H28.9832V17.9751C28.9832 12.8965 27.8895 8.99365 21.9516 8.99365C19.1008 8.99365 17.1898 10.5576 16.4084 12.0377H16.3291V9.45958H10.7082ZM1.16602 9.45958H7.03085V28.3124H1.16602V9.45958Z" fill="white"/>
</svg>
