<svg width="202" height="66" viewBox="0 0 202 66" fill="none" xmlns="http://www.w3.org/2000/svg">
<path d="M52.0177 65.4731L60.0468 48.4562L48.5168 24.1519H59.7043L63.6998 34.4917C64.0423 35.3693 64.3086 36.1705 64.5369 36.9336C64.7653 37.6967 64.9175 38.3835 65.0316 39.0321C65.1458 38.3453 65.298 37.6585 65.5263 36.9336C65.7546 36.2087 66.021 35.4074 66.3635 34.5299L70.397 24.19H81.1659L63.2051 65.5113H52.0177V65.4731Z" fill="white"/>
<path d="M88.51 8.81372H98.1373V23.8084C98.1373 25.0294 98.0992 26.0214 98.0612 26.8226C98.0231 27.6239 97.947 28.3106 97.8329 28.9211C99.0125 26.8608 100.344 25.4109 101.866 24.5334C103.389 23.6558 105.367 23.2361 107.803 23.2361C111.608 23.2361 114.69 24.6478 117.087 27.4331C119.447 30.2565 120.626 33.9193 120.626 38.4979C120.626 43.1909 119.447 46.9682 117.049 49.7153C114.652 52.5006 111.456 53.8741 107.46 53.8741C105.481 53.8741 103.731 53.3781 102.095 52.4243C100.497 51.4704 99.0505 50.0205 97.7568 48.1128V52.7677H88.51V8.81372ZM97.4523 38.4979C97.4523 40.749 98.0231 42.5041 99.2028 43.7632C100.344 45.0605 101.981 45.7091 103.997 45.7091C106.052 45.7091 107.65 45.0605 108.83 43.8014C110.01 42.5423 110.58 40.749 110.58 38.4979C110.58 36.2849 110.01 34.4917 108.83 33.2326C107.65 31.9353 106.052 31.2867 103.997 31.2867C101.943 31.2867 100.344 31.9353 99.2028 33.2326C98.0612 34.5298 97.4523 36.2849 97.4523 38.4979Z" fill="white"/>
<path d="M161.076 38.5742C161.076 40.6346 160.658 42.5804 159.859 44.45C159.059 46.3196 157.88 47.9602 156.358 49.4482C154.798 50.9363 153.085 52.0427 151.183 52.8058C149.28 53.5689 147.225 53.9505 145.094 53.9505C142.887 53.9505 140.87 53.5689 138.93 52.8058C137.027 52.0427 135.315 50.9363 133.793 49.4482C132.27 47.9984 131.129 46.3577 130.33 44.4882C129.531 42.6186 129.15 40.6346 129.15 38.5742C129.15 36.4757 129.531 34.4917 130.33 32.6603C131.129 30.7907 132.27 29.1501 133.793 27.6621C135.277 26.2122 136.989 25.1057 138.892 24.3808C140.794 23.6558 142.849 23.2743 145.056 23.2743C147.263 23.2743 149.318 23.6558 151.221 24.3808C153.123 25.1057 154.836 26.2122 156.358 27.6621C157.918 29.1501 159.059 30.8289 159.859 32.6984C160.696 34.5299 161.076 36.4757 161.076 38.5742ZM151.068 38.5742C151.068 36.4376 150.536 34.7588 149.47 33.5378C148.405 32.3169 146.959 31.7064 145.094 31.7064C143.23 31.7064 141.784 32.3169 140.718 33.5378C139.653 34.7588 139.12 36.4376 139.12 38.5742C139.12 40.7109 139.653 42.3897 140.718 43.6106C141.784 44.8316 143.23 45.442 145.094 45.442C146.959 45.442 148.405 44.8316 149.47 43.6106C150.536 42.3897 151.068 40.7109 151.068 38.5742Z" fill="white"/>
<path d="M170.97 52.8058V24.1518H180.178V29.9513C181.51 27.6238 183.07 25.9069 184.821 24.8386C186.571 23.7702 188.664 23.2361 191.138 23.2361C193.002 23.2361 194.638 23.5413 196.084 24.1136C197.53 24.7241 198.71 25.5635 199.623 26.67C200.384 27.6238 200.917 28.8066 201.221 30.1802C201.526 31.5538 201.716 33.6141 201.716 36.3612V52.7676H191.632V37.4295C191.632 35.1403 191.252 33.4615 190.529 32.4313C189.768 31.4011 188.588 30.867 186.952 30.867C184.859 30.867 183.337 31.6301 182.385 33.1944C181.434 34.7587 180.939 37.2769 180.939 40.749V52.7676H170.97V52.8058Z" fill="white"/>
<path d="M27.626 34.2627L16.02 28.3487L21.5757 17.2839L33.9047 23.6557L27.626 34.2627Z" fill="url(#paint0_linear)"/>
<path d="M12.291 54.4846L0 48.4562V12.0568L12.291 0V54.4846Z" fill="url(#paint1_linear)"/>
<path d="M39.1941 54.4846H25.2669L13.6609 33.0037L20.4342 19.6115L39.1941 54.4846Z" fill="url(#paint2_linear)"/>
<path d="M12.291 5.34162V0L16.9334 2.67081L21.5758 5.34162L16.9334 8.05059L12.291 10.7214V5.34162Z" fill="url(#paint3_linear)"/>
<path d="M33.9047 23.6558L21.5757 17.284V5.34167L33.9047 12.0187V23.6558Z" fill="url(#paint4_linear)"/>
<defs>
<linearGradient id="paint0_linear" x1="22.4897" y1="20.0913" x2="28.8925" y2="35.2455" gradientUnits="userSpaceOnUse">
<stop stop-color="#856410"/>
<stop offset="1" stop-color="#DDB46A"/>
</linearGradient>
<linearGradient id="paint1_linear" x1="3.71019" y1="13.309" x2="11.3595" y2="47.3849" gradientUnits="userSpaceOnUse">
<stop stop-color="#DFB66C"/>
<stop offset="1" stop-color="#85640F"/>
</linearGradient>
<linearGradient id="paint2_linear" x1="17.8255" y1="31.3994" x2="33.1871" y2="48.5281" gradientUnits="userSpaceOnUse">
<stop stop-color="#DFB66C"/>
<stop offset="1" stop-color="#85640F"/>
</linearGradient>
<linearGradient id="paint3_linear" x1="11.568" y1="2.20874" x2="19.568" y2="7.90005" gradientUnits="userSpaceOnUse">
<stop stop-color="#886713"/>
<stop offset="1" stop-color="#D9B066"/>
</linearGradient>
<linearGradient id="paint4_linear" x1="23.8805" y1="8.79782" x2="33.62" y2="23.4633" gradientUnits="userSpaceOnUse">
<stop stop-color="#856410"/>
<stop offset="1" stop-color="#DCB369"/>
</linearGradient>
</defs>
</svg>
