<svg width="14" height="19" viewBox="0 0 14 19" fill="none" xmlns="http://www.w3.org/2000/svg">
<path d="M6.71802 3.40479C6.08841 3.40479 5.47294 3.59143 4.94944 3.94111C4.42595 4.2908 4.01793 4.78781 3.77699 5.36932C3.53605 5.95082 3.47301 6.59069 3.59584 7.20801C3.71867 7.82533 4.02185 8.39237 4.46705 8.83743C4.91225 9.2825 5.47947 9.58559 6.09698 9.70838C6.71449 9.83117 7.35455 9.76815 7.93623 9.52729C8.51791 9.28642 9.01509 8.87853 9.36488 8.35519C9.71467 7.83185 9.90137 7.21657 9.90137 6.58716C9.90137 5.74314 9.56598 4.93369 8.96899 4.33688C8.37199 3.74007 7.5623 3.40479 6.71802 3.40479ZM6.71802 8.65875C6.30817 8.65875 5.90752 8.53726 5.56675 8.30963C5.22597 8.082 4.96037 7.75846 4.80353 7.37992C4.64668 7.00139 4.60565 6.58486 4.6856 6.18301C4.76556 5.78116 4.96292 5.41204 5.25273 5.12232C5.54254 4.8326 5.91177 4.6353 6.31375 4.55537C6.71572 4.47543 7.13238 4.51646 7.51103 4.67325C7.88968 4.83005 8.21332 5.09557 8.44102 5.43624C8.66872 5.77691 8.79025 6.17743 8.79025 6.58716C8.78878 7.13562 8.56981 7.66111 8.18135 8.04841C7.79289 8.43571 7.26665 8.6532 6.71802 8.6532V8.65875Z" fill="#DFB66C"/>
<path d="M6.71683 0.783691C4.98638 0.785136 3.32681 1.47105 2.1006 2.69161C0.874382 3.91217 0.181169 5.5682 0.172363 7.298C0.172363 9.8915 1.62792 12.0629 2.69459 13.6457L2.88904 13.9345C3.95031 15.4721 5.08881 16.9549 6.30016 18.3773C6.52183 18.6368 6.92293 18.6368 7.14461 18.3773C8.3558 16.9548 9.4943 15.4719 10.5557 13.9345L10.7502 13.6401C11.8113 12.0574 13.2668 9.8915 13.2668 7.298C13.258 5.56724 12.5641 3.91037 11.3366 2.68965C10.1092 1.46893 8.44824 0.783669 6.71683 0.783691ZM9.82239 13.0015L9.62239 13.2958C8.66683 14.7286 7.40016 16.3336 6.71683 17.1278C6.06127 16.3336 4.76682 14.7286 3.81126 13.2958L3.61682 13.0015C2.63348 11.5354 1.28348 9.53052 1.28348 7.27578C1.28348 6.56253 1.42402 5.85625 1.69707 5.19729C1.97012 4.53833 2.37034 3.93958 2.87487 3.43523C3.3794 2.93088 3.97837 2.53081 4.63757 2.25786C5.29678 1.9849 6.00331 1.84442 6.71683 1.84442C7.43034 1.84442 8.13687 1.9849 8.79608 2.25786C9.45528 2.53081 10.0543 2.93088 10.5588 3.43523C11.0633 3.93958 11.4635 4.53833 11.7366 5.19729C12.0096 5.85625 12.1502 6.56253 12.1502 7.27578C12.1502 9.55274 10.8057 11.5576 9.82239 13.0015Z" fill="#DFB66C"/>
</svg>
