<svg width="60" height="60" viewBox="0 0 60 60" fill="none" xmlns="http://www.w3.org/2000/svg">
<path d="M40.0727 38.7717C38.6511 38.7717 37.4946 37.7689 37.4946 36.5363C37.4946 35.3036 38.6511 34.3008 40.0727 34.3008C41.4943 34.3008 42.6508 35.3036 42.6508 36.5363C42.6508 37.1846 43.1756 37.7103 43.8227 37.7103C44.4698 37.7103 44.9946 37.1846 44.9946 36.5363C44.9946 34.385 43.3945 32.5761 41.2446 32.0851V31.4745C41.2446 30.8263 40.7198 30.3005 40.0727 30.3005C39.4256 30.3005 38.9009 30.8263 38.9009 31.4745V32.0851C36.7509 32.5761 35.1509 34.385 35.1509 36.5363C35.1509 39.0636 37.3588 41.1197 40.0727 41.1197C41.4943 41.1197 42.6508 42.1225 42.6508 43.3552C42.6508 44.5879 41.4943 45.5907 40.0727 45.5907C38.6511 45.5907 37.4946 44.5879 37.4946 43.3552C37.4946 42.7069 36.9699 42.1812 36.3227 42.1812C35.6756 42.1812 35.1509 42.7069 35.1509 43.3552C35.1509 45.5065 36.7509 47.3154 38.9009 47.8064V48.3136C38.9009 48.9618 39.4256 49.4875 40.0727 49.4875C40.7198 49.4875 41.2446 48.9618 41.2446 48.3136V47.8064C43.3945 47.3154 44.9946 45.5065 44.9946 43.3552C44.9946 40.8278 42.7867 38.7717 40.0727 38.7717Z" fill="#DFB66C"/>
<path d="M52.9081 31.7885C51.3773 29.3988 49.2206 27.4866 46.6712 26.2588C46.0877 25.9778 45.3875 26.2238 45.1072 26.8083C44.8268 27.3927 45.0723 28.094 45.6556 28.375C50.0983 30.5144 52.9688 35.0858 52.9688 40.0211C52.9688 42.1329 52.4492 44.2271 51.4664 46.0778C51.1624 46.6501 51.3791 47.3611 51.9505 47.6656C52.1258 47.7591 52.3142 47.8035 52.4998 47.8035C52.9191 47.8035 53.3247 47.5774 53.5354 47.1807C54.698 44.9919 55.3126 42.516 55.3126 40.0211C55.3126 37.0908 54.4811 34.244 52.9081 31.7885Z" fill="#DFB66C"/>
<path d="M34.5006 51.6673C30.058 49.5277 27.1875 44.9563 27.1875 40.0212C27.1875 37.9094 27.7071 35.8151 28.6899 33.9644C28.9939 33.3921 28.7773 32.6811 28.2059 32.3766C27.6347 32.072 26.9248 32.2891 26.6209 32.8615C25.4583 35.0505 24.8438 37.5262 24.8438 40.0212C24.8438 42.9515 25.6752 45.7982 27.2482 48.2538C28.779 50.6435 30.9357 52.5557 33.4851 53.7835C33.6488 53.8624 33.8218 53.8997 33.9921 53.8997C34.4285 53.8997 34.8473 53.6544 35.0491 53.2341C35.3293 52.6497 35.0839 51.9482 34.5006 51.6673Z" fill="#DFB66C"/>
<path d="M45.3994 20.7876C45.2568 20.4471 45.0821 20.1263 44.8787 19.8286H47.9296C50.9019 19.8286 53.3202 17.406 53.3202 14.4283C53.3202 11.4506 50.9019 9.02793 47.9296 9.02793H38.5452C39.1418 8.15894 39.4921 7.10763 39.4921 5.97555C39.4921 2.99784 37.0738 0.575195 34.1015 0.575195H5.39061C2.41828 0.575195 0 2.99784 0 5.97555C0 8.95326 2.41828 11.3759 5.39061 11.3759H14.775C14.1784 12.2449 13.8281 13.2962 13.8281 14.4283C13.8281 15.5604 14.1783 16.6117 14.775 17.4807H11.7187C8.74639 17.4807 6.32811 19.9033 6.32811 22.881C6.32811 24.5912 7.12663 26.1172 8.36893 27.1074C7.12663 28.0975 6.32811 29.6236 6.32811 31.3338C6.32811 33.0439 7.12663 34.57 8.36893 35.5601C7.12663 36.5503 6.32811 38.0763 6.32811 39.7865C6.32811 41.4966 7.12663 43.0227 8.36893 44.0129C7.12663 45.003 6.32811 46.5291 6.32811 48.2392C6.32811 51.2169 8.74639 53.6396 11.7187 53.6396H25.5292C29.1674 57.5381 34.3431 59.9792 40.0782 59.9792C51.0631 59.9792 60 51.0262 60 40.0214C60 30.8623 53.809 23.1256 45.3994 20.7876ZM47.9296 11.3759C49.6097 11.3759 50.9765 12.7453 50.9765 14.4283C50.9765 16.1113 49.6097 17.4807 47.9296 17.4807H40.4296H19.2187C17.5386 17.4807 16.1718 16.1113 16.1718 14.4283C16.1718 12.7453 17.5386 11.3759 19.2187 11.3759H47.9296ZM5.39061 9.02793C3.7105 9.02793 2.34375 7.65859 2.34375 5.97555C2.34375 4.29252 3.7105 2.92318 5.39061 2.92318H34.1015C35.7816 2.92318 37.1484 4.29252 37.1484 5.97555C37.1484 7.65859 35.7816 9.02793 34.1015 9.02793H5.39061ZM11.7187 19.8286H40.4296C40.9016 19.8286 41.3536 19.9385 41.7591 20.1353C41.2048 20.0887 40.6444 20.0636 40.0782 20.0636C34.5768 20.0636 29.5893 22.3093 25.9807 25.9334H11.7187C10.0387 25.9334 8.67186 24.5641 8.67186 22.881C8.67186 21.198 10.0387 19.8286 11.7187 19.8286ZM11.7187 28.2814H23.9783C22.648 30.1073 21.6194 32.1667 20.9662 34.3861H11.7187C10.0386 34.3861 8.67186 33.0169 8.67186 31.3338C8.67186 29.6507 10.0386 28.2814 11.7187 28.2814ZM11.7187 36.7341H20.4281C20.2503 37.804 20.1563 38.9018 20.1563 40.0214C20.1563 40.9777 20.2254 41.9181 20.3558 42.8389H11.7187C10.0386 42.8389 8.67186 41.4696 8.67186 39.7865C8.67186 38.1033 10.0386 36.7341 11.7187 36.7341ZM11.7187 51.2916C10.0386 51.2916 8.67186 49.9224 8.67186 48.2392C8.67186 46.5561 10.0386 45.1868 11.7187 45.1868H20.8343C21.4256 47.3955 22.3862 49.4538 23.6459 51.2916H11.7187ZM40.0782 57.6313C30.3856 57.6313 22.5001 49.7315 22.5001 40.0214C22.5001 30.3113 30.3856 22.4115 40.0782 22.4115C49.7707 22.4115 57.6563 30.3113 57.6563 40.0214C57.6563 49.7315 49.7707 57.6313 40.0782 57.6313Z" fill="#222222"/>
</svg>
