<svg width="20" height="16" viewBox="0 0 20 16" fill="none" xmlns="http://www.w3.org/2000/svg">
<path d="M12.8098 2.35997L11.0398 4.13997C10.3614 3.95793 9.64695 3.95774 8.96846 4.13941C8.28997 4.32108 7.67128 4.67821 7.17461 5.17487C6.67795 5.67154 6.32082 6.29023 6.13915 6.96872C5.95748 7.64721 5.95767 8.36158 6.13971 9.03997L3.37971 11.79C2.05971 10.79 0.959707 9.48997 0.199707 7.99997C1.34063 5.76281 3.2127 3.98339 5.50484 2.95738C7.79698 1.93137 10.3712 1.72056 12.7998 2.35997H12.8098ZM16.6098 4.20997C17.9398 5.20997 19.0397 6.50997 19.8097 7.99997C18.6681 10.2413 16.7927 12.0236 14.4963 13.0499C12.1999 14.0762 9.62107 14.2845 7.18971 13.64L8.95971 11.86C9.6381 12.042 10.3525 12.0422 11.031 11.8606C11.7095 11.6789 12.3282 11.3218 12.8248 10.8251C13.3215 10.3284 13.6786 9.70971 13.8603 9.03122C14.042 8.35273 14.0418 7.63836 13.8598 6.95997L16.6198 4.20997H16.6098ZM16.3598 0.219971L17.7798 1.63997L3.63971 15.78L2.21971 14.36L16.3598 0.219971Z" fill="#DFB66C"/>
</svg>
