<?xml version="1.0" encoding="UTF-8" standalone="no"?>
<svg width="484" xmlns="http://www.w3.org/2000/svg" fill="none" viewBox="0 0 484 255" height="255">
 <line stroke-linejoin="round" y2="56.513" x2="198.8" stroke="#fff" stroke-linecap="round" stroke-dasharray="5 5" y1="81.632" x1="223.92"/>
 <line stroke-linejoin="round" y2="59.098" x2="95.712" stroke="#fff" stroke-linecap="round" stroke-dasharray="5 5" y1="92.167" x1="125.75"/>
 <line stroke-linejoin="round" y2="156.09" x2="223.94" stroke="#fff" stroke-linecap="round" stroke-dasharray="5 5" y1="195.68" x1="199.64"/>
 <line stroke-linejoin="round" y2="210.58" x2="153.8" stroke="#fff" stroke-linecap="round" stroke-dasharray="5 5" y1="195.62" x1="109.82"/>
 <line stroke-linejoin="round" y2="56.103" x2="55.66" stroke="#fff" stroke-linecap="round" stroke-dasharray="5 5" y1="91.422" x1="29.904"/>
 <line stroke-linejoin="round" y2="95.537" x2="294.39" stroke="#fff" stroke-linecap="round" stroke-dasharray="5 5" y1="81.322" x1="320.76"/>
 <line stroke-linejoin="round" y2="143.65" x2="292.06" stroke="#fff" stroke-linecap="round" stroke-dasharray="5 5" y1="172.06" x1="341.01"/>
 <line stroke-linejoin="round" y2="174.75" x2="391.71" stroke="#fff" stroke-linecap="round" stroke-dasharray="5 5" y1="152.63" x1="422.24"/>
 <line stroke-linejoin="round" y2="59.234" x2="384.9" stroke="#fff" stroke-linecap="round" stroke-dasharray="5 5" y1="42.37" x1="428.61"/>
 <circle stroke-width="3" cy="118.8" cx="253.4" r="45.993" stroke="#DFB66C"/>
 <circle stroke-width="3" cy="71.305" cx="353.06" r="33.004" stroke="#DFB66C"/>
 <circle stroke-width="3" cy="34.623" cx="455.21" r="27.256" stroke="#DFB66C"/>
 <circle stroke-width="3" cy="186.68" cx="365.56" r="27.256" stroke="#DFB66C"/>
 <circle stroke-width="3" cy="134.56" cx="441.66" r="25.591" stroke="#DFB66C"/>
 <circle stroke-width="3" cy="40.576" cx="183.11" r="21.303" stroke="#DFB66C"/>
 <circle stroke-width="3" cy="118.96" cx="137.5" r="27.346" stroke="#DFB66C"/>
 <circle stroke-width="3" cy="189.65" cx="83.274" r="24.411" stroke="#DFB66C"/>
 <circle stroke-width="2" cy="104.81" cx="18.063" r="16.819" stroke="#DFB66C"/>
 <circle stroke-width="3" cy="221.87" cx="183.11" r="30.717" stroke="#DFB66C"/>
 <circle stroke-width="3" cy="32.807" cx="76.441" r="30.717" stroke="#DFB66C"/>
 <path fill="#fff" clip-rule="evenodd" d="m263.44 105.32c0 5.54-4.49 10.04-10.03 10.04-5.55 0-10.04-4.5-10.04-10.04 0-5.545 4.49-10.04 10.04-10.04 5.54 0 10.03 4.495 10.03 10.04zm2.45 0c0 6.9-5.59 12.49-12.48 12.49-6.9 0-12.49-5.59-12.49-12.49 0-6.896 5.59-12.486 12.49-12.486 6.89 0 12.48 5.59 12.48 12.486zm5.92 31.82c0.69 1.66 1.15 3.4 1.37 5.18h-39.55c0.22-1.78 0.68-3.52 1.37-5.18 1-2.42 2.47-4.62 4.32-6.47s4.04-3.31 6.46-4.31c2.42-1.01 5.01-1.52 7.63-1.52 2.61 0 5.2 0.51 7.62 1.52 2.42 1 4.61 2.46 6.46 4.31s3.32 4.05 4.32 6.47zm2.26-0.94c0.81 1.96 1.34 4.02 1.57 6.12 0.09 0.81 0.14 1.62 0.14 2.44h-22.37-19.93-2.45c0-0.82 0.05-1.63 0.14-2.44 0.23-2.1 0.76-4.16 1.57-6.12 1.12-2.71 2.77-5.18 4.85-7.26 2.07-2.07 4.54-3.72 7.25-4.85 2.72-1.12 5.63-1.7 8.57-1.7 2.93 0 5.84 0.58 8.56 1.7 2.71 1.13 5.18 2.78 7.25 4.85 2.08 2.08 3.73 4.55 4.85 7.26z" fill-rule="evenodd"/>
 <path fill="#fff" clip-rule="evenodd" d="m360.35 61.513c0 4.029-3.26 7.294-7.29 7.294s-7.29-3.265-7.29-7.294c0-4.028 3.26-7.293 7.29-7.293s7.29 3.265 7.29 7.293zm1.78 0c0 5.01-4.06 9.072-9.07 9.072s-9.07-4.062-9.07-9.072 4.06-9.071 9.07-9.071 9.07 4.061 9.07 9.071zm4.3 23.116c0.5 1.206 0.84 2.472 1 3.762h-14.37-14.37c0.16-1.29 0.5-2.556 1-3.762 0.72-1.756 1.79-3.352 3.13-4.696 1.35-1.344 2.94-2.41 4.7-3.138 1.76-0.727 3.64-1.102 5.54-1.102s3.78 0.375 5.54 1.102c1.76 0.728 3.35 1.794 4.7 3.138 1.34 1.344 2.41 2.94 3.13 4.696zm1.65-0.68c0.58 1.422 0.97 2.918 1.14 4.442 0.06 0.589 0.09 1.183 0.09 1.778h-16.25-14.48-1.77c0-0.595 0.03-1.189 0.09-1.778 0.17-1.524 0.56-3.02 1.14-4.442 0.82-1.972 2.02-3.764 3.53-5.273s3.3-2.706 5.27-3.523 4.09-1.237 6.22-1.237 4.25 0.42 6.22 1.237 3.76 2.014 5.27 3.523 2.71 3.301 3.53 5.273z" fill-rule="evenodd"/>
 <path fill="#fff" clip-rule="evenodd" d="m461.29 26.462c0 3.357-2.73 6.079-6.08 6.079-3.36 0-6.08-2.722-6.08-6.079 0-3.358 2.72-6.079 6.08-6.079 3.35 0 6.08 2.721 6.08 6.079zm1.48 0c0 4.175-3.39 7.56-7.56 7.56-4.18 0-7.56-3.385-7.56-7.56 0-4.176 3.38-7.561 7.56-7.561 4.17 0 7.56 3.385 7.56 7.561zm3.58 19.265c0.42 1.005 0.7 2.06 0.83 3.135h-11.97-11.98c0.14-1.075 0.41-2.13 0.83-3.135 0.61-1.463 1.5-2.793 2.62-3.914 1.12-1.12 2.45-2.009 3.91-2.615s3.03-0.918 4.62-0.918c1.58 0 3.15 0.312 4.61 0.918 1.47 0.606 2.8 1.495 3.92 2.615 1.12 1.121 2.01 2.451 2.61 3.914zm1.37-0.567c0.49 1.186 0.81 2.432 0.95 3.702 0.05 0.491 0.08 0.986 0.08 1.482h-13.54-12.07-1.48c0-0.496 0.03-0.991 0.08-1.482 0.14-1.27 0.46-2.516 0.95-3.702 0.68-1.643 1.68-3.136 2.94-4.394s2.75-2.256 4.39-2.937c1.65-0.68 3.41-1.031 5.19-1.031s3.54 0.351 5.18 1.031c1.64 0.681 3.14 1.679 4.39 2.937 1.26 1.258 2.26 2.751 2.94 4.394z" fill-rule="evenodd"/>
 <path fill="#fff" clip-rule="evenodd" d="m371.64 178.52c0 3.36-2.72 6.08-6.08 6.08-3.35 0-6.08-2.72-6.08-6.08s2.73-6.08 6.08-6.08c3.36 0 6.08 2.72 6.08 6.08zm1.48 0c0 4.18-3.38 7.56-7.56 7.56-4.17 0-7.56-3.38-7.56-7.56s3.39-7.56 7.56-7.56c4.18 0 7.56 3.38 7.56 7.56zm3.59 19.27c0.42 1 0.69 2.06 0.83 3.13h-11.98-11.97c0.13-1.07 0.41-2.13 0.83-3.13 0.6-1.47 1.49-2.8 2.61-3.92s2.45-2.01 3.92-2.61c1.46-0.61 3.03-0.92 4.61-0.92 1.59 0 3.16 0.31 4.62 0.92 1.46 0.6 2.79 1.49 3.91 2.61 1.13 1.12 2.01 2.45 2.62 3.92zm1.37-0.57c0.49 1.18 0.81 2.43 0.95 3.7 0.05 0.49 0.08 0.99 0.08 1.48h-13.55-12.06-1.48c0-0.49 0.02-0.99 0.08-1.48 0.14-1.27 0.46-2.52 0.95-3.7 0.68-1.64 1.68-3.14 2.94-4.4 1.25-1.25 2.75-2.25 4.39-2.93s3.4-1.03 5.18-1.03 3.54 0.35 5.19 1.03c1.64 0.68 3.13 1.68 4.39 2.93 1.26 1.26 2.26 2.76 2.94 4.4z" fill-rule="evenodd"/>
 <path fill="#fff" clip-rule="evenodd" d="m447.39 126.88c0 3.16-2.57 5.72-5.73 5.72s-5.73-2.56-5.73-5.72c0-3.17 2.57-5.73 5.73-5.73s5.73 2.56 5.73 5.73zm1.39 0c0 3.93-3.18 7.12-7.12 7.12-3.93 0-7.12-3.19-7.12-7.12 0-3.94 3.19-7.13 7.12-7.13 3.94 0 7.12 3.19 7.12 7.13zm3.38 18.15c0.39 0.94 0.66 1.94 0.78 2.95h-11.28-11.28c0.13-1.01 0.39-2.01 0.78-2.95 0.57-1.38 1.41-2.64 2.46-3.69 1.06-1.06 2.31-1.89 3.69-2.46 1.38-0.58 2.86-0.87 4.35-0.87s2.97 0.29 4.35 0.87c1.38 0.57 2.63 1.4 3.69 2.46 1.05 1.05 1.89 2.31 2.46 3.69zm1.29-0.54c0.46 1.12 0.76 2.29 0.9 3.49 0.05 0.46 0.07 0.93 0.07 1.4h-12.76-11.36-1.4c0-0.47 0.02-0.94 0.08-1.4 0.13-1.2 0.43-2.37 0.89-3.49 0.64-1.55 1.58-2.95 2.77-4.14 1.18-1.18 2.59-2.12 4.14-2.76 1.54-0.65 3.2-0.98 4.88-0.98s3.34 0.33 4.88 0.98c1.55 0.64 2.96 1.58 4.14 2.76 1.19 1.19 2.13 2.59 2.77 4.14z" fill-rule="evenodd"/>
 <path fill="#fff" clip-rule="evenodd" d="m187.93 34.105c0 2.662-2.16 4.82-4.82 4.82s-4.82-2.158-4.82-4.82 2.16-4.821 4.82-4.821 4.82 2.159 4.82 4.821zm1.17 0c0 3.311-2.68 5.995-5.99 5.995s-5.99-2.684-5.99-5.995 2.68-5.995 5.99-5.995 5.99 2.684 5.99 5.995zm2.85 15.277c0.33 0.797 0.55 1.633 0.65 2.486h-9.49-9.49c0.1-0.853 0.32-1.689 0.65-2.486 0.48-1.161 1.19-2.215 2.07-3.104 0.89-0.888 1.95-1.593 3.11-2.074 1.16-0.48 2.4-0.728 3.66-0.728s2.5 0.248 3.66 0.728c1.16 0.481 2.22 1.186 3.1 2.074 0.89 0.889 1.6 1.943 2.08 3.104zm1.08-0.45c0.39 0.94 0.65 1.929 0.76 2.936 0.04 0.389 0.06 0.782 0.06 1.175h-21.48c0-0.393 0.02-0.786 0.06-1.175 0.11-1.007 0.37-1.996 0.76-2.936 0.54-1.303 1.33-2.487 2.32-3.484 1-0.998 2.19-1.789 3.49-2.329s2.7-0.818 4.11-0.818 2.81 0.278 4.11 0.818 2.49 1.331 3.48 2.329c1 0.997 1.79 2.181 2.33 3.484z" fill-rule="evenodd"/>
 <path fill="#fff" clip-rule="evenodd" d="m143.6 110.77c0 3.37-2.73 6.1-6.1 6.1-3.36 0-6.1-2.73-6.1-6.1 0-3.36 2.74-6.09 6.1-6.09 3.37 0 6.1 2.73 6.1 6.09zm1.49 0c0 4.19-3.4 7.59-7.59 7.59s-7.58-3.4-7.58-7.59 3.39-7.58 7.58-7.58 7.59 3.39 7.59 7.58zm3.59 19.33c0.42 1.01 0.7 2.06 0.83 3.14h-12.01-12.01c0.14-1.08 0.41-2.13 0.83-3.14 0.61-1.47 1.5-2.8 2.63-3.93 1.12-1.12 2.45-2.01 3.92-2.62s3.04-0.92 4.63-0.92 3.16 0.31 4.63 0.92 2.81 1.5 3.93 2.62c1.12 1.13 2.02 2.46 2.62 3.93zm1.38-0.57c0.49 1.19 0.81 2.44 0.95 3.71 0.05 0.5 0.08 0.99 0.08 1.49h-13.59-12.1-1.48c0-0.5 0.02-0.99 0.08-1.49 0.14-1.27 0.46-2.52 0.95-3.71 0.68-1.65 1.68-3.15 2.95-4.41 1.26-1.26 2.75-2.26 4.4-2.94 1.65-0.69 3.42-1.04 5.2-1.04 1.79 0 3.55 0.35 5.2 1.04 1.65 0.68 3.15 1.68 4.41 2.94s2.26 2.76 2.95 4.41z" fill-rule="evenodd"/>
 <path fill="#fff" clip-rule="evenodd" d="m88.751 182.3c0 3.03-2.452 5.48-5.477 5.48s-5.477-2.45-5.477-5.48c0-3.02 2.452-5.48 5.477-5.48s5.477 2.46 5.477 5.48zm1.335 0c0 3.76-3.05 6.81-6.812 6.81s-6.812-3.05-6.812-6.81 3.05-6.81 6.812-6.81 6.812 3.05 6.812 6.81zm3.231 17.36c0.375 0.91 0.625 1.86 0.745 2.82h-10.788-10.788c0.12-0.96 0.37-1.91 0.745-2.82 0.546-1.32 1.347-2.52 2.356-3.53 1.01-1.01 2.208-1.81 3.527-2.35 1.319-0.55 2.732-0.83 4.16-0.83 1.427 0 2.841 0.28 4.16 0.83 1.319 0.54 2.517 1.34 3.526 2.35 1.01 1.01 1.81 2.21 2.357 3.53zm1.233-0.51c0.442 1.07 0.73 2.19 0.856 3.33 0.049 0.45 0.073 0.89 0.073 1.34h-12.205-10.871-1.335c0-0.45 0.025-0.89 0.074-1.34 0.126-1.14 0.413-2.26 0.855-3.33 0.614-1.48 1.513-2.83 2.646-3.96 1.134-1.13 2.479-2.03 3.96-2.65 1.481-0.61 3.068-0.92 4.671-0.92s3.19 0.31 4.671 0.92c1.481 0.62 2.826 1.52 3.959 2.65 1.134 1.13 2.033 2.48 2.646 3.96z" fill-rule="evenodd"/>
 <path fill="#fff" clip-rule="evenodd" d="m21.83 99.752c0 2.078-1.686 3.768-3.766 3.768-2.081 0-3.767-1.69-3.767-3.768 0-2.081 1.686-3.767 3.767-3.767 2.08 0 3.766 1.686 3.766 3.767zm0.918 0c0 2.588-2.097 4.688-4.684 4.688-2.588 0-4.685-2.1-4.685-4.688s2.097-4.685 4.685-4.685c2.587 0 4.684 2.097 4.684 4.685zm2.222 11.938c0.258 0.62 0.43 1.28 0.512 1.94h-7.419-7.419c0.083-0.66 0.255-1.32 0.513-1.94 0.376-0.91 0.926-1.73 1.621-2.43 0.694-0.69 1.518-1.24 2.425-1.62 0.907-0.37 1.879-0.56 2.86-0.56 0.982 0 1.954 0.19 2.861 0.56 0.907 0.38 1.731 0.93 2.425 1.62 0.695 0.7 1.245 1.52 1.621 2.43zm0.848-0.35c0.304 0.73 0.502 1.5 0.589 2.29 0.033 0.31 0.05 0.61 0.05 0.92h-16.787c0-0.31 0.0169-0.61 0.0504-0.92 0.0866-0.79 0.2847-1.56 0.5887-2.29 0.422-1.02 1.04-1.95 1.819-2.72 0.78-0.78 1.705-1.4 2.723-1.82 1.019-0.43 2.11-0.64 3.212-0.64 1.103 0 2.194 0.21 3.213 0.64 1.018 0.42 1.943 1.04 2.723 1.82 0.779 0.77 1.397 1.7 1.819 2.72z" fill-rule="evenodd"/>
 <path fill="#fff" clip-rule="evenodd" d="m189.92 212.73c0 3.76-3.05 6.81-6.81 6.81s-6.81-3.05-6.81-6.81 3.05-6.81 6.81-6.81 6.81 3.05 6.81 6.81zm1.66 0c0 4.68-3.79 8.47-8.47 8.47s-8.47-3.79-8.47-8.47 3.79-8.47 8.47-8.47 8.47 3.79 8.47 8.47zm4.02 21.58c0.46 1.13 0.77 2.31 0.92 3.51h-13.41-13.41c0.14-1.2 0.46-2.38 0.92-3.51 0.68-1.64 1.68-3.13 2.93-4.38 1.26-1.26 2.75-2.25 4.39-2.93s3.39-1.03 5.17-1.03c1.77 0 3.53 0.35 5.17 1.03s3.13 1.67 4.39 2.93c1.25 1.25 2.25 2.74 2.93 4.38zm1.53-0.63c0.55 1.32 0.91 2.72 1.06 4.14 0.06 0.55 0.09 1.11 0.09 1.66h-15.17-13.52-1.66c0-0.55 0.03-1.11 0.09-1.66 0.16-1.42 0.52-2.82 1.07-4.14 0.76-1.84 1.88-3.52 3.29-4.93s3.08-2.52 4.92-3.29c1.84-0.76 3.82-1.15 5.81-1.15s3.97 0.39 5.81 1.15c1.84 0.77 3.51 1.88 4.92 3.29s2.53 3.09 3.29 4.93z" fill-rule="evenodd"/>
 <path fill="#fff" clip-rule="evenodd" d="m83.252 23.664c0 3.761-3.049 6.81-6.81 6.81-3.762 0-6.811-3.049-6.811-6.81s3.049-6.81 6.811-6.81c3.761 0 6.81 3.049 6.81 6.81zm1.66 0c0 4.678-3.793 8.47-8.47 8.47-4.678 0-8.471-3.792-8.471-8.47s3.793-8.47 8.471-8.47c4.677 0 8.47 3.792 8.47 8.47zm4.016 21.584c0.467 1.126 0.778 2.308 0.927 3.512h-13.414-13.413c0.149-1.204 0.46-2.386 0.926-3.512 0.68-1.64 1.675-3.13 2.93-4.385s2.745-2.251 4.385-2.93 3.397-1.029 5.172-1.029 3.533 0.35 5.173 1.029c1.639 0.679 3.129 1.675 4.384 2.93s2.251 2.745 2.93 4.385zm1.534-0.635c0.55 1.327 0.907 2.724 1.064 4.147 0.06 0.55 0.091 1.104 0.091 1.66h-15.176-13.516-1.659c0-0.556 0.03-1.11 0.091-1.66 0.156-1.423 0.514-2.82 1.064-4.147 0.762-1.842 1.88-3.515 3.289-4.924 1.41-1.409 3.083-2.527 4.924-3.289 1.841-0.763 3.814-1.156 5.807-1.156s3.967 0.393 5.808 1.156c1.841 0.762 3.514 1.88 4.923 3.289s2.527 3.082 3.29 4.924z" fill-rule="evenodd"/>
</svg>
