<svg width="484" height="255" viewBox="0 0 484 255" fill="none" xmlns="http://www.w3.org/2000/svg">
<line x1="223.924" y1="81.6318" x2="198.805" y2="56.5127" stroke="white" stroke-linecap="round" stroke-linejoin="round" stroke-dasharray="5 5"/>
<line x1="125.746" y1="92.1667" x2="95.7118" y2="59.0985" stroke="white" stroke-linecap="round" stroke-linejoin="round" stroke-dasharray="5 5"/>
<line x1="199.635" y1="195.678" x2="223.944" y2="156.092" stroke="white" stroke-linecap="round" stroke-linejoin="round" stroke-dasharray="5 5"/>
<line x1="109.82" y1="195.618" x2="153.796" y2="210.584" stroke="white" stroke-linecap="round" stroke-linejoin="round" stroke-dasharray="5 5"/>
<line x1="29.9043" y1="91.4215" x2="55.6595" y2="56.1033" stroke="white" stroke-linecap="round" stroke-linejoin="round" stroke-dasharray="5 5"/>
<line x1="320.758" y1="81.3224" x2="294.388" y2="95.5374" stroke="white" stroke-linecap="round" stroke-linejoin="round" stroke-dasharray="5 5"/>
<line x1="341.007" y1="172.055" x2="292.059" y2="143.653" stroke="white" stroke-linecap="round" stroke-linejoin="round" stroke-dasharray="5 5"/>
<line x1="422.237" y1="152.627" x2="391.71" y2="174.754" stroke="white" stroke-linecap="round" stroke-linejoin="round" stroke-dasharray="5 5"/>
<line x1="428.612" y1="42.3701" x2="384.903" y2="59.2335" stroke="white" stroke-linecap="round" stroke-linejoin="round" stroke-dasharray="5 5"/>
<circle cx="253.405" cy="118.798" r="45.9927" stroke="#DFB66C" stroke-width="3"/>
<circle cx="353.06" cy="71.3051" r="33.0038" stroke="#DFB66C" stroke-width="3"/>
<circle cx="455.207" cy="34.6227" r="27.2565" stroke="#DFB66C" stroke-width="3"/>
<circle cx="365.564" cy="186.681" r="27.2565" stroke="#DFB66C" stroke-width="3"/>
<circle cx="441.661" cy="134.565" r="25.5913" stroke="#DFB66C" stroke-width="3"/>
<circle cx="183.109" cy="40.5762" r="21.3032" stroke="#DFB66C" stroke-width="3"/>
<circle cx="137.504" cy="118.96" r="27.3455" stroke="#DFB66C" stroke-width="3"/>
<circle cx="83.2745" cy="189.654" r="24.4112" stroke="#DFB66C" stroke-width="3"/>
<circle cx="18.063" cy="104.809" r="16.8188" stroke="#DFB66C" stroke-width="2"/>
<circle cx="183.11" cy="221.871" r="30.7167" stroke="#DFB66C" stroke-width="3"/>
<circle cx="76.4413" cy="32.807" r="30.7167" stroke="#DFB66C" stroke-width="3"/>
<path fill-rule="evenodd" clip-rule="evenodd" d="M263.445 105.32C263.445 110.864 258.95 115.359 253.406 115.359C247.861 115.359 243.366 110.864 243.366 105.32C243.366 99.7752 247.861 95.2803 253.406 95.2803C258.95 95.2803 263.445 99.7752 263.445 105.32ZM265.892 105.32C265.892 112.216 260.302 117.806 253.406 117.806C246.51 117.806 240.92 112.216 240.92 105.32C240.92 98.4238 246.51 92.8335 253.406 92.8335C260.302 92.8335 265.892 98.4238 265.892 105.32ZM271.813 137.138C272.501 138.798 272.959 140.54 273.179 142.315H253.406H233.632C233.852 140.54 234.31 138.798 234.998 137.138C235.999 134.72 237.467 132.524 239.317 130.674C241.167 128.823 243.363 127.356 245.781 126.355C248.198 125.353 250.789 124.838 253.406 124.838C256.022 124.838 258.613 125.353 261.03 126.355C263.448 127.356 265.644 128.823 267.494 130.674C269.344 132.524 270.812 134.72 271.813 137.138ZM274.074 136.201C274.885 138.159 275.412 140.218 275.643 142.315C275.732 143.126 275.777 143.943 275.777 144.762H273.33H253.406L233.481 144.762H231.034C231.034 143.943 231.079 143.126 231.168 142.315C231.399 140.218 231.926 138.159 232.737 136.201C233.861 133.487 235.509 131.021 237.587 128.943C239.664 126.866 242.13 125.218 244.844 124.094C247.559 122.97 250.468 122.391 253.406 122.391C256.343 122.391 259.252 122.97 261.967 124.094C264.681 125.218 267.147 126.866 269.224 128.943C271.302 131.021 272.95 133.487 274.074 136.201Z" fill="white"/>
<path fill-rule="evenodd" clip-rule="evenodd" d="M360.354 61.5133C360.354 65.5415 357.089 68.807 353.06 68.807C349.032 68.807 345.767 65.5415 345.767 61.5133C345.767 57.4851 349.032 54.2195 353.06 54.2195C357.089 54.2195 360.354 57.4851 360.354 61.5133ZM362.132 61.5133C362.132 66.5233 358.07 70.5847 353.06 70.5847C348.05 70.5847 343.989 66.5233 343.989 61.5133C343.989 56.5033 348.05 52.4419 353.06 52.4419C358.07 52.4419 362.132 56.5033 362.132 61.5133ZM366.434 84.6291C366.933 85.8352 367.266 87.1007 367.426 88.3909H353.06L338.694 88.3909C338.854 87.1007 339.187 85.8352 339.687 84.6291C340.414 82.8729 341.48 81.2772 342.824 79.933C344.169 78.5889 345.764 77.5226 347.521 76.7952C349.277 76.0677 351.159 75.6933 353.06 75.6933C354.961 75.6933 356.843 76.0677 358.6 76.7952C360.356 77.5226 361.952 78.5889 363.296 79.933C364.64 81.2772 365.706 82.8729 366.434 84.6291ZM368.076 83.9489C368.665 85.371 369.048 86.8668 369.216 88.3909C369.28 88.9801 369.313 89.5735 369.313 90.1686H367.535H353.06L338.585 90.1686H336.807C336.807 89.5735 336.84 88.9801 336.905 88.3909C337.072 86.8668 337.455 85.371 338.044 83.9489C338.861 81.977 340.058 80.1852 341.568 78.676C343.077 77.1668 344.868 75.9696 346.84 75.1528C348.812 74.336 350.926 73.9156 353.06 73.9156C355.194 73.9156 357.308 74.336 359.28 75.1528C361.252 75.9696 363.043 77.1668 364.553 78.676C366.062 80.1852 367.259 81.977 368.076 83.9489Z" fill="white"/>
<path fill-rule="evenodd" clip-rule="evenodd" d="M461.286 26.4617C461.286 29.819 458.564 32.5406 455.207 32.5406C451.85 32.5406 449.128 29.819 449.128 26.4617C449.128 23.1045 451.85 20.3829 455.207 20.3829C458.564 20.3829 461.286 23.1045 461.286 26.4617ZM462.767 26.4617C462.767 30.6372 459.382 34.0221 455.207 34.0221C451.032 34.0221 447.647 30.6372 447.647 26.4617C447.647 22.2863 451.032 18.9014 455.207 18.9014C459.382 18.9014 462.767 22.2863 462.767 26.4617ZM466.353 45.7272C466.769 46.7323 467.047 47.7871 467.18 48.8624H455.207L443.234 48.8624C443.367 47.7871 443.645 46.7323 444.061 45.7272C444.667 44.2635 445.556 42.9335 446.676 41.8133C447.796 40.693 449.126 39.8044 450.59 39.1981C452.054 38.5918 453.623 38.2798 455.207 38.2798C456.791 38.2798 458.36 38.5918 459.824 39.1981C461.287 39.8044 462.617 40.693 463.737 41.8133C464.858 42.9335 465.746 44.2635 466.353 45.7272ZM467.721 45.1602C468.212 46.3455 468.531 47.5921 468.671 48.8624C468.725 49.3534 468.753 49.848 468.753 50.3439H467.271H455.207L443.143 50.3439H441.661C441.661 49.848 441.688 49.3534 441.742 48.8624C441.882 47.5921 442.201 46.3455 442.692 45.1602C443.373 43.5168 444.371 42.0235 445.629 40.7657C446.886 39.5078 448.38 38.5101 450.023 37.8293C451.667 37.1486 453.428 36.7982 455.207 36.7982C456.986 36.7982 458.747 37.1486 460.391 37.8293C462.034 38.5101 463.527 39.5078 464.785 40.7657C466.043 42.0235 467.041 43.5168 467.721 45.1602Z" fill="white"/>
<path fill-rule="evenodd" clip-rule="evenodd" d="M371.643 178.52C371.643 181.878 368.921 184.599 365.564 184.599C362.207 184.599 359.485 181.878 359.485 178.52C359.485 175.163 362.207 172.442 365.564 172.442C368.921 172.442 371.643 175.163 371.643 178.52ZM373.124 178.52C373.124 182.696 369.739 186.081 365.564 186.081C361.388 186.081 358.004 182.696 358.004 178.52C358.004 174.345 361.388 170.96 365.564 170.96C369.739 170.96 373.124 174.345 373.124 178.52ZM376.71 197.786C377.126 198.791 377.404 199.846 377.537 200.921H365.564L353.591 200.921C353.724 199.846 354.002 198.791 354.418 197.786C355.024 196.322 355.913 194.992 357.033 193.872C358.153 192.752 359.483 191.863 360.947 191.257C362.411 190.65 363.979 190.338 365.564 190.338C367.148 190.338 368.717 190.65 370.181 191.257C371.644 191.863 372.974 192.752 374.094 193.872C375.215 194.992 376.103 196.322 376.71 197.786ZM378.078 197.219C378.569 198.404 378.888 199.651 379.028 200.921C379.082 201.412 379.109 201.907 379.109 202.403H377.628H365.564L353.5 202.403H352.018C352.018 201.907 352.045 201.412 352.099 200.921C352.239 199.651 352.558 198.404 353.049 197.219C353.73 195.575 354.728 194.082 355.986 192.824C357.243 191.566 358.737 190.569 360.38 189.888C362.023 189.207 363.785 188.857 365.564 188.857C367.343 188.857 369.104 189.207 370.747 189.888C372.391 190.569 373.884 191.566 375.142 192.824C376.4 194.082 377.398 195.575 378.078 197.219Z" fill="white"/>
<path fill-rule="evenodd" clip-rule="evenodd" d="M447.388 126.876C447.388 130.039 444.824 132.603 441.661 132.603C438.498 132.603 435.934 130.039 435.934 126.876C435.934 123.714 438.498 121.15 441.661 121.15C444.824 121.15 447.388 123.714 447.388 126.876ZM448.784 126.876C448.784 130.81 445.595 133.999 441.661 133.999C437.727 133.999 434.538 130.81 434.538 126.876C434.538 122.943 437.727 119.754 441.661 119.754C445.595 119.754 448.784 122.943 448.784 126.876ZM452.161 145.026C452.553 145.973 452.815 146.967 452.94 147.98H441.661L430.381 147.98C430.507 146.967 430.768 145.973 431.16 145.026C431.731 143.647 432.569 142.394 433.624 141.339C434.679 140.284 435.932 139.447 437.311 138.875C438.69 138.304 440.168 138.01 441.661 138.01C443.153 138.01 444.631 138.304 446.01 138.875C447.389 139.447 448.642 140.284 449.697 141.339C450.753 142.394 451.59 143.647 452.161 145.026ZM453.451 144.492C453.913 145.609 454.214 146.783 454.346 147.98C454.396 148.443 454.422 148.909 454.422 149.376H453.026H441.661L430.295 149.376H428.899C428.899 148.909 428.925 148.443 428.976 147.98C429.108 146.783 429.408 145.609 429.871 144.492C430.512 142.944 431.452 141.537 432.637 140.352C433.822 139.167 435.229 138.227 436.777 137.586C438.325 136.945 439.985 136.614 441.661 136.614C443.337 136.614 444.996 136.945 446.544 137.586C448.093 138.227 449.499 139.167 450.684 140.352C451.869 141.537 452.809 142.944 453.451 144.492Z" fill="white"/>
<path fill-rule="evenodd" clip-rule="evenodd" d="M187.93 34.1048C187.93 36.767 185.772 38.9252 183.11 38.9252C180.448 38.9252 178.289 36.767 178.289 34.1048C178.289 31.4426 180.448 29.2845 183.11 29.2845C185.772 29.2845 187.93 31.4426 187.93 34.1048ZM189.105 34.1048C189.105 37.4159 186.421 40.1 183.11 40.1C179.799 40.1 177.115 37.4159 177.115 34.1048C177.115 30.7938 179.799 28.1096 183.11 28.1096C186.421 28.1096 189.105 30.7938 189.105 34.1048ZM191.948 49.3819C192.278 50.1789 192.498 51.0153 192.604 51.868H183.11L173.615 51.868C173.721 51.0153 173.941 50.1789 174.271 49.3819C174.752 48.2212 175.457 47.1666 176.345 46.2782C177.233 45.3899 178.288 44.6852 179.449 44.2045C180.609 43.7237 181.853 43.4762 183.11 43.4762C184.366 43.4762 185.61 43.7237 186.771 44.2045C187.931 44.6852 188.986 45.3899 189.874 46.2782C190.763 47.1666 191.467 48.2212 191.948 49.3819ZM193.033 48.9323C193.423 49.8722 193.676 50.8607 193.787 51.868C193.829 52.2574 193.851 52.6496 193.851 53.0428H192.676H183.11H173.543H172.368C172.368 52.6496 172.39 52.2574 172.433 51.868C172.543 50.8607 172.796 49.8722 173.186 48.9323C173.726 47.6291 174.517 46.4449 175.514 45.4475C176.512 44.4501 177.696 43.6589 178.999 43.1191C180.302 42.5793 181.699 42.3014 183.11 42.3014C184.52 42.3014 185.917 42.5793 187.22 43.1191C188.523 43.6589 189.707 44.4501 190.705 45.4475C191.702 46.4449 192.494 47.6291 193.033 48.9323Z" fill="white"/>
<path fill-rule="evenodd" clip-rule="evenodd" d="M143.6 110.773C143.6 114.141 140.87 116.871 137.503 116.871C134.135 116.871 131.405 114.141 131.405 110.773C131.405 107.406 134.135 104.676 137.503 104.676C140.87 104.676 143.6 107.406 143.6 110.773ZM145.087 110.773C145.087 114.962 141.691 118.357 137.503 118.357C133.314 118.357 129.919 114.962 129.919 110.773C129.919 106.585 133.314 103.19 137.503 103.19C141.691 103.19 145.087 106.585 145.087 110.773ZM148.683 130.099C149.101 131.107 149.379 132.165 149.513 133.243H137.503L125.493 133.243C125.626 132.165 125.905 131.107 126.322 130.099C126.931 128.63 127.822 127.296 128.946 126.173C130.069 125.049 131.403 124.157 132.872 123.549C134.34 122.941 135.913 122.628 137.503 122.628C139.092 122.628 140.665 122.941 142.134 123.549C143.602 124.157 144.936 125.049 146.06 126.173C147.183 127.296 148.075 128.63 148.683 130.099ZM150.056 129.53C150.548 130.719 150.869 131.969 151.009 133.243C151.063 133.736 151.09 134.232 151.09 134.73H149.604H137.503L125.401 134.73H123.915C123.915 134.232 123.942 133.736 123.997 133.243C124.137 131.969 124.457 130.719 124.949 129.53C125.632 127.881 126.633 126.383 127.895 125.122C129.156 123.86 130.654 122.859 132.303 122.176C133.951 121.493 135.718 121.142 137.503 121.142C139.287 121.142 141.054 121.493 142.702 122.176C144.351 122.859 145.849 123.86 147.111 125.122C148.372 126.383 149.373 127.881 150.056 129.53Z" fill="white"/>
<path fill-rule="evenodd" clip-rule="evenodd" d="M88.7513 182.301C88.7513 185.326 86.299 187.778 83.274 187.778C80.2489 187.778 77.7966 185.326 77.7966 182.301C77.7966 179.276 80.2489 176.823 83.274 176.823C86.299 176.823 88.7513 179.276 88.7513 182.301ZM90.0863 182.301C90.0863 186.063 87.0363 189.113 83.274 189.113C79.5116 189.113 76.4616 186.063 76.4616 182.301C76.4616 178.539 79.5116 175.489 83.274 175.489C87.0363 175.489 90.0863 178.539 90.0863 182.301ZM93.3168 199.66C93.692 200.566 93.9421 201.516 94.062 202.485H83.2738L72.4856 202.485C72.6055 201.516 72.8556 200.566 73.2308 199.66C73.7771 198.341 74.5778 197.143 75.5872 196.133C76.5966 195.124 77.795 194.323 79.1138 193.777C80.4327 193.231 81.8463 192.95 83.2738 192.95C84.7013 192.95 86.1149 193.231 87.4338 193.777C88.7526 194.323 89.951 195.124 90.9604 196.133C91.9698 197.143 92.7705 198.341 93.3168 199.66ZM94.5502 199.149C94.9925 200.217 95.2801 201.341 95.406 202.485C95.4547 202.928 95.4792 203.373 95.4792 203.82H94.1443H83.2738L72.4033 203.82H71.0684C71.0684 203.373 71.0929 202.928 71.1416 202.485C71.2675 201.341 71.5551 200.217 71.9974 199.149C72.6108 197.668 73.5099 196.323 74.6432 195.19C75.7766 194.056 77.1221 193.157 78.603 192.544C80.0838 191.93 81.671 191.615 83.2738 191.615C84.8766 191.615 86.4638 191.93 87.9446 192.544C89.4255 193.157 90.771 194.056 91.9044 195.19C93.0377 196.323 93.9368 197.668 94.5502 199.149Z" fill="white"/>
<path fill-rule="evenodd" clip-rule="evenodd" d="M21.8303 99.7516C21.8303 101.832 20.1439 103.518 18.0636 103.518C15.9833 103.518 14.2969 101.832 14.2969 99.7516C14.2969 97.6713 15.9833 95.9849 18.0636 95.9849C20.1439 95.9849 21.8303 97.6713 21.8303 99.7516ZM22.7483 99.7516C22.7483 102.339 20.6509 104.436 18.0636 104.436C15.4763 104.436 13.3788 102.339 13.3788 99.7516C13.3788 97.1643 15.4763 95.0669 18.0636 95.0669C20.6509 95.0669 22.7483 97.1643 22.7483 99.7516ZM24.9699 111.689C25.2279 112.312 25.3999 112.966 25.4823 113.632H18.0634L10.6445 113.632C10.727 112.966 10.899 112.312 11.157 111.689C11.5327 110.782 12.0833 109.958 12.7775 109.264C13.4716 108.57 14.2957 108.019 15.2027 107.644C16.1097 107.268 17.0817 107.075 18.0634 107.075C19.0451 107.075 20.0172 107.268 20.9242 107.644C21.8312 108.019 22.6553 108.57 23.3494 109.264C24.0436 109.958 24.5942 110.782 24.9699 111.689ZM25.8181 111.338C26.1223 112.072 26.32 112.845 26.4066 113.632C26.4401 113.936 26.457 114.243 26.457 114.55H25.5389H18.0634H10.588H9.66992C9.66992 114.243 9.6868 113.936 9.72028 113.632C9.80689 112.845 10.0046 112.072 10.3088 111.338C10.7307 110.32 11.3489 109.394 12.1283 108.615C12.9077 107.836 13.833 107.217 14.8514 106.796C15.8697 106.374 16.9612 106.157 18.0634 106.157C19.1657 106.157 20.2572 106.374 21.2755 106.796C22.2939 107.217 23.2192 107.836 23.9986 108.615C24.778 109.394 25.3962 110.32 25.8181 111.338Z" fill="white"/>
<path fill-rule="evenodd" clip-rule="evenodd" d="M189.92 212.728C189.92 216.489 186.871 219.538 183.109 219.538C179.348 219.538 176.299 216.489 176.299 212.728C176.299 208.967 179.348 205.918 183.109 205.918C186.871 205.918 189.92 208.967 189.92 212.728ZM191.58 212.728C191.58 217.406 187.787 221.198 183.109 221.198C178.432 221.198 174.639 217.406 174.639 212.728C174.639 208.05 178.432 204.258 183.109 204.258C187.787 204.258 191.58 208.05 191.58 212.728ZM195.596 234.312C196.063 235.438 196.374 236.62 196.523 237.824H183.109L169.696 237.824C169.845 236.62 170.156 235.438 170.622 234.312C171.301 232.672 172.297 231.182 173.552 229.927C174.807 228.672 176.297 227.676 177.937 226.997C179.577 226.318 181.334 225.968 183.109 225.968C184.884 225.968 186.642 226.318 188.281 226.997C189.921 227.676 191.411 228.672 192.666 229.927C193.921 231.182 194.917 232.672 195.596 234.312ZM197.13 233.677C197.68 235.004 198.037 236.401 198.194 237.824C198.254 238.374 198.285 238.928 198.285 239.484H196.625H183.109L169.593 239.484H167.934C167.934 238.928 167.964 238.374 168.025 237.824C168.181 236.401 168.539 235.004 169.089 233.677C169.851 231.835 170.969 230.162 172.378 228.753C173.788 227.344 175.461 226.226 177.302 225.464C179.143 224.701 181.116 224.308 183.109 224.308C185.102 224.308 187.075 224.701 188.917 225.464C190.758 226.226 192.431 227.344 193.84 228.753C195.249 230.162 196.367 231.835 197.13 233.677Z" fill="white"/>
<path fill-rule="evenodd" clip-rule="evenodd" d="M83.2517 23.6642C83.2517 27.4254 80.2027 30.4745 76.4415 30.4745C72.6803 30.4745 69.6312 27.4254 69.6312 23.6642C69.6312 19.903 72.6803 16.8539 76.4415 16.8539C80.2027 16.8539 83.2517 19.903 83.2517 23.6642ZM84.9116 23.6642C84.9116 28.3421 81.1194 32.1343 76.4415 32.1343C71.7636 32.1343 67.9714 28.3421 67.9714 23.6642C67.9714 18.9863 71.7636 15.1941 76.4415 15.1941C81.1194 15.1941 84.9116 18.9863 84.9116 23.6642ZM88.9282 45.2478C89.3947 46.3739 89.7057 47.5556 89.8547 48.7603H76.4412L63.0278 48.7603C63.1768 47.5556 63.4878 46.3739 63.9543 45.2478C64.6335 43.608 65.6291 42.118 66.8841 40.863C68.1392 39.6079 69.6292 38.6123 71.269 37.9331C72.9088 37.2539 74.6663 36.9043 76.4412 36.9043C78.2162 36.9043 79.9737 37.2539 81.6135 37.9331C83.2533 38.6123 84.7433 39.6079 85.9984 40.863C87.2534 42.118 88.249 43.608 88.9282 45.2478ZM90.4617 44.6126C91.0117 45.9405 91.3692 47.3371 91.5258 48.7603C91.5864 49.3104 91.6169 49.8645 91.6169 50.4201H89.9571H76.4412L62.9254 50.4201H61.2656C61.2656 49.8645 61.2961 49.3104 61.3567 48.7603C61.5133 47.3371 61.8708 45.9405 62.4208 44.6126C63.1834 42.7714 64.3013 41.0985 65.7105 39.6893C67.1196 38.2801 68.7926 37.1623 70.6338 36.3996C72.475 35.637 74.4484 35.2445 76.4412 35.2445C78.4341 35.2445 80.4075 35.637 82.2487 36.3996C84.0899 37.1623 85.7628 38.2801 87.172 39.6893C88.5812 41.0985 89.6991 42.7714 90.4617 44.6126Z" fill="white"/>
</svg>
