<svg width="94" height="94" viewBox="0 0 94 94" fill="none" xmlns="http://www.w3.org/2000/svg">
<circle cx="46.8719" cy="47.0311" r="46.7" fill="white"/>
<path fill-rule="evenodd" clip-rule="evenodd" d="M57.4551 33.5395C57.4551 39.0842 52.9603 43.579 47.4156 43.579C41.871 43.579 37.3761 39.0842 37.3761 33.5395C37.3761 27.9949 41.871 23.5001 47.4156 23.5001C52.9603 23.5001 57.4551 27.9949 57.4551 33.5395ZM59.9019 33.5395C59.9019 40.4355 54.3116 46.0258 47.4156 46.0258C40.5196 46.0258 34.9293 40.4355 34.9293 33.5395C34.9293 26.6435 40.5196 21.0532 47.4156 21.0532C54.3116 21.0532 59.9019 26.6435 59.9019 33.5395ZM65.8231 65.3573C66.5108 67.0174 66.9692 68.7593 67.189 70.5352H47.4153H27.6416C27.8614 68.7593 28.3198 67.0174 29.0075 65.3573C30.0088 62.9399 31.4764 60.7435 33.3265 58.8933C35.1767 57.0432 37.3732 55.5755 39.7905 54.5742C42.2079 53.5729 44.7988 53.0576 47.4153 53.0576C50.0318 53.0576 52.6227 53.5729 55.0401 54.5742C57.4574 55.5755 59.6539 57.0432 61.504 58.8933C63.3542 60.7435 64.8218 62.9399 65.8231 65.3573ZM68.0837 64.4209C68.8945 66.3784 69.4216 68.4373 69.6524 70.5352C69.7417 71.3462 69.7866 72.163 69.7866 72.9821H67.3398H47.4153L27.4908 72.9821H25.0439C25.0439 72.163 25.0889 71.3462 25.1782 70.5352C25.409 68.4373 25.936 66.3784 26.7469 64.4209C27.8711 61.7067 29.519 59.2405 31.5964 57.1631C33.6737 55.0858 36.1399 53.4379 38.8541 52.3136C41.5684 51.1894 44.4774 50.6107 47.4153 50.6107C50.3531 50.6107 53.2622 51.1894 55.9764 52.3136C58.6906 53.4379 61.1568 55.0858 63.2342 57.1631C65.3116 59.2405 66.9594 61.7067 68.0837 64.4209Z" fill="#000E39"/>
</svg>
