<svg width="19" height="18" viewBox="0 0 19 18" fill="none" xmlns="http://www.w3.org/2000/svg">
<path d="M14.6363 17.958C14.4611 17.9575 14.2864 17.9383 14.1153 17.9007C10.8576 17.227 7.85635 15.6475 5.45704 13.3438C3.10893 11.0351 1.48039 8.09567 0.768454 4.88109C0.684509 4.48045 0.705112 4.06496 0.828283 3.67459C0.951454 3.28422 1.17305 2.93211 1.47174 2.65213L3.55556 0.647113C3.66199 0.546491 3.78846 0.469437 3.9267 0.420979C4.06493 0.372522 4.21184 0.35375 4.35783 0.36589C4.5092 0.381676 4.65527 0.430422 4.78578 0.508698C4.91628 0.586975 5.02805 0.692882 5.11321 0.818972L7.71798 4.66756C7.81566 4.8169 7.86282 4.99363 7.8525 5.17175C7.84218 5.34988 7.77495 5.51999 7.66068 5.65705L6.35308 7.21941C6.87386 8.37161 7.61137 9.41299 8.52546 10.2868C9.43364 11.1924 10.5071 11.9154 11.6877 12.4168L13.3078 11.1305C13.4439 11.023 13.6095 10.9594 13.7826 10.9483C13.9556 10.9371 14.128 10.9789 14.2768 11.068L18.21 13.6094C18.345 13.69 18.46 13.8 18.5464 13.9313C18.6327 14.0626 18.6883 14.2118 18.7088 14.3676C18.7294 14.5234 18.7144 14.6818 18.665 14.831C18.6156 14.9802 18.5331 15.1163 18.4236 15.2291L16.3919 17.2393C16.1611 17.4689 15.8872 17.6506 15.5859 17.7739C15.2846 17.8972 14.9618 17.9598 14.6363 17.958ZM4.27448 1.39704L2.19066 3.40206C2.02263 3.55858 1.89824 3.75613 1.82973 3.97528C1.76123 4.19443 1.75096 4.42762 1.79994 4.65194C2.46193 7.66839 3.98364 10.4286 6.18117 12.5991C8.43909 14.7664 11.2634 16.2521 14.3289 16.8852C14.5609 16.9336 14.8014 16.9238 15.0287 16.8566C15.256 16.7893 15.463 16.6667 15.6313 16.4998L17.663 14.4895L13.8652 12.0367L12.1253 13.4219C12.0586 13.4746 11.9802 13.5103 11.8966 13.5257C11.8131 13.5411 11.727 13.5359 11.646 13.5105C10.2012 12.9783 8.89193 12.1336 7.81176 11.0368C6.69449 9.99373 5.82724 8.71198 5.27471 7.28711C5.25133 7.20085 5.25056 7.11003 5.27245 7.02338C5.29435 6.93673 5.33818 6.85717 5.39974 6.79236L6.80631 5.11023L4.27448 1.39704Z" fill="#DFB66C"/>
</svg>
