<svg width="31" height="25" viewBox="0 0 31 25" fill="none" xmlns="http://www.w3.org/2000/svg">
<path d="M30.7793 2.91315C29.6761 3.3889 28.4755 3.73129 27.2389 3.86464C28.5228 3.10214 29.4842 1.89752 29.9429 0.476779C28.7381 1.19324 27.4182 1.69563 26.0419 1.96167C25.4666 1.34691 24.7709 0.857156 23.998 0.522939C23.2252 0.188721 22.3917 0.0171984 21.5496 0.0190579C18.1426 0.0190579 15.4025 2.7798 15.4025 6.16766C15.4025 6.6434 15.4602 7.11915 15.554 7.57687C10.4524 7.31016 5.90248 4.87379 2.8776 1.14354C2.32644 2.08463 2.03761 3.15616 2.04116 4.24667C2.04116 6.3803 3.12637 8.26165 4.78122 9.36811C3.80599 9.32971 2.8536 9.06175 2.00151 8.58602V8.6617C2.00151 11.6495 4.11423 14.1255 6.93 14.695C6.40131 14.8323 5.85744 14.9025 5.3112 14.904C4.91101 14.904 4.53245 14.8644 4.15029 14.8103C4.92904 17.2467 7.19679 19.0163 9.89719 19.074C7.78446 20.7282 5.13815 21.7014 2.2647 21.7014C1.74913 21.7014 1.27323 21.6833 0.779297 21.6257C3.50493 23.3737 6.73892 24.3828 10.2217 24.3828C21.528 24.3828 27.7148 15.0193 27.7148 6.89209C27.7148 6.62538 27.7148 6.35868 27.6967 6.09198C28.8937 5.21618 29.9429 4.13134 30.7793 2.91315Z" fill="white"/>
</svg>
