<svg width="20" height="14" viewBox="0 0 20 14" fill="none" xmlns="http://www.w3.org/2000/svg">
<path d="M0.199951 7C1.12114 5.19302 2.524 3.67591 4.25347 2.61634C5.98295 1.55677 7.97171 0.996002 9.99995 0.996002C12.0282 0.996002 14.017 1.55677 15.7464 2.61634C17.4759 3.67591 18.8788 5.19302 19.7999 7C18.8788 8.80699 17.4759 10.3241 15.7464 11.3837C14.017 12.4432 12.0282 13.004 9.99995 13.004C7.97171 13.004 5.98295 12.4432 4.25347 11.3837C2.524 10.3241 1.12114 8.80699 0.199951 7V7ZM9.99995 11C11.0608 11 12.0782 10.5786 12.8284 9.82843C13.5785 9.07829 14 8.06087 14 7C14 5.93914 13.5785 4.92172 12.8284 4.17158C12.0782 3.42143 11.0608 3 9.99995 3C8.93909 3 7.92167 3.42143 7.17152 4.17158C6.42138 4.92172 5.99995 5.93914 5.99995 7C5.99995 8.06087 6.42138 9.07829 7.17152 9.82843C7.92167 10.5786 8.93909 11 9.99995 11V11ZM9.99995 9C9.46952 9 8.96081 8.78929 8.58574 8.41422C8.21067 8.03914 7.99995 7.53044 7.99995 7C7.99995 6.46957 8.21067 5.96086 8.58574 5.58579C8.96081 5.21072 9.46952 5 9.99995 5C10.5304 5 11.0391 5.21072 11.4142 5.58579C11.7892 5.96086 12 6.46957 12 7C12 7.53044 11.7892 8.03914 11.4142 8.41422C11.0391 8.78929 10.5304 9 9.99995 9Z" fill="#B5B5B5"/>
</svg>
