<svg width="20" height="14" viewBox="0 0 20 14" fill="none" xmlns="http://www.w3.org/2000/svg">
<path d="M0.199707 6.99997C1.1209 5.19299 2.52376 3.67588 4.25323 2.61631C5.98271 1.55674 7.97147 0.995972 9.99971 0.995972C12.028 0.995972 14.0168 1.55674 15.7462 2.61631C17.4757 3.67588 18.8786 5.19299 19.7997 6.99997C18.8786 8.80696 17.4757 10.3241 15.7462 11.3837C14.0168 12.4432 12.028 13.004 9.99971 13.004C7.97147 13.004 5.98271 12.4432 4.25323 11.3837C2.52376 10.3241 1.1209 8.80696 0.199707 6.99997ZM9.99971 11C11.0606 11 12.078 10.5786 12.8282 9.8284C13.5783 9.07826 13.9998 8.06084 13.9998 6.99997C13.9998 5.93911 13.5783 4.92169 12.8282 4.17155C12.078 3.4214 11.0606 2.99997 9.99971 2.99997C8.93885 2.99997 7.92143 3.4214 7.17128 4.17155C6.42114 4.92169 5.99971 5.93911 5.99971 6.99997C5.99971 8.06084 6.42114 9.07826 7.17128 9.8284C7.92143 10.5786 8.93885 11 9.99971 11ZM9.99971 8.99997C9.46928 8.99997 8.96057 8.78926 8.5855 8.41419C8.21043 8.03911 7.99971 7.53041 7.99971 6.99997C7.99971 6.46954 8.21043 5.96083 8.5855 5.58576C8.96057 5.21069 9.46928 4.99997 9.99971 4.99997C10.5302 4.99997 11.0389 5.21069 11.414 5.58576C11.789 5.96083 11.9998 6.46954 11.9998 6.99997C11.9998 7.53041 11.789 8.03911 11.414 8.41419C11.0389 8.78926 10.5302 8.99997 9.99971 8.99997Z" fill="#DFB66C"/>
</svg>
